<?xml version="1.0" encoding="UTF-8" standalone="no"?>
<svg
   xmlns:dc="http://purl.org/dc/elements/1.1/"
   xmlns:cc="http://creativecommons.org/ns#"
   xmlns:rdf="http://www.w3.org/1999/02/22-rdf-syntax-ns#"
   xmlns:svg="http://www.w3.org/2000/svg"
   xmlns="http://www.w3.org/2000/svg"
   id="svg239"
   height="158.8mm"
   width="343.29001mm"
   version="1.0">
  <metadata
     id="metadata243">
    <rdf:RDF>
      <cc:Work
         rdf:about="">
        <dc:format>image/svg+xml</dc:format>
        <dc:type
           rdf:resource="http://purl.org/dc/dcmitype/StillImage" />
      </cc:Work>
    </rdf:RDF>
  </metadata>
  <defs
     id="defs3">
    <pattern
       y="0"
       x="0"
       height="6"
       width="6"
       patternUnits="userSpaceOnUse"
       id="EMFhbasepattern" />
  </defs>
  <path
     id="path5"
     d="  M 23.722835,578.83717   L 23.722835,584.93732  "
     style="fill:none;stroke:#000000;stroke-width:2.7111812px;stroke-linecap:round;stroke-linejoin:round;stroke-miterlimit:4;stroke-dasharray:none;stroke-opacity:1;" />
  <text
     id="text11"
     y="8.383500"
     x="-32.602500"
     transform="matrix(1.000000,-0.000000,0.000000,1.000000,39.312126,584.937323)"
     style="font-size:11.500000px;font-style:normal;font-variant:normal;font-weight:700;font-stretch:Normal;line-height:125.000000%;letter-spacing:0px;word-spacing:0px;fill:#000000;fill-opacity:1;stroke:none;font-family:Arial;text-align:start;text-anchor:start;"
     xml:space="preserve"><tspan
       id="tspan9"
       y="8.383500"
       x="-32.602500"><tspan
         id="tspan7"
         style="fill:#000000;font-size:11.500000px;font-style:normal;font-variant:normal;font-weight:700;font-stretch:Normal;font-family:Arial;"
         dy="0.000000"
         dx="0.000000">0.0ms</tspan></tspan></text>
  <path
     id="path13"
     d="  M 149.79276,578.83717   L 149.79276,584.93732  "
     style="fill:none;stroke:#000000;stroke-width:2.7111812px;stroke-linecap:round;stroke-linejoin:round;stroke-miterlimit:4;stroke-dasharray:none;stroke-opacity:1;" />
  <text
     id="text19"
     y="8.383500"
     x="-32.602500"
     transform="matrix(1.000000,-0.000000,0.000000,1.000000,165.382047,584.937323)"
     style="font-size:11.500000px;font-style:normal;font-variant:normal;font-weight:700;font-stretch:Normal;line-height:125.000000%;letter-spacing:0px;word-spacing:0px;fill:#000000;fill-opacity:1;stroke:none;font-family:Arial;text-align:start;text-anchor:start;"
     xml:space="preserve"><tspan
       id="tspan17"
       y="8.383500"
       x="-32.602500"><tspan
         id="tspan15"
         style="fill:#000000;font-size:11.500000px;font-style:normal;font-variant:normal;font-weight:700;font-stretch:Normal;font-family:Arial;"
         dy="0.000000"
         dx="0.000000">0.5ms</tspan></tspan></text>
  <path
     id="path21"
     d="  M 149.79276,578.83717   L 149.79276,14.233701  "
     style="fill:none;stroke:#646464;stroke-width:0.67779529px;stroke-linecap:round;stroke-linejoin:round;stroke-miterlimit:4;stroke-dasharray:1,1;stroke-dashoffset:0;stroke-opacity:1;" />
  <path
     id="path23"
     d="  M 275.86268,578.83717   L 275.86268,584.93732  "
     style="fill:none;stroke:#000000;stroke-width:2.7111812px;stroke-linecap:round;stroke-linejoin:round;stroke-miterlimit:4;stroke-dasharray:none;stroke-opacity:1;" />
  <text
     id="text29"
     y="8.383500"
     x="-32.602500"
     transform="matrix(1.000000,-0.000000,0.000000,1.000000,291.451969,584.937323)"
     style="font-size:11.500000px;font-style:normal;font-variant:normal;font-weight:700;font-stretch:Normal;line-height:125.000000%;letter-spacing:0px;word-spacing:0px;fill:#000000;fill-opacity:1;stroke:none;font-family:Arial;text-align:start;text-anchor:start;"
     xml:space="preserve"><tspan
       id="tspan27"
       y="8.383500"
       x="-32.602500"><tspan
         id="tspan25"
         style="fill:#000000;font-size:11.500000px;font-style:normal;font-variant:normal;font-weight:700;font-stretch:Normal;font-family:Arial;"
         dy="0.000000"
         dx="0.000000">1.0ms</tspan></tspan></text>
  <path
     id="path31"
     d="  M 275.86268,578.83717   L 275.86268,14.233701  "
     style="fill:none;stroke:#646464;stroke-width:0.67779529px;stroke-linecap:round;stroke-linejoin:round;stroke-miterlimit:4;stroke-dasharray:1,1;stroke-dashoffset:0;stroke-opacity:1;" />
  <path
     id="path33"
     d="  M 401.2548,578.83717   L 401.2548,584.93732  "
     style="fill:none;stroke:#000000;stroke-width:2.7111812px;stroke-linecap:round;stroke-linejoin:round;stroke-miterlimit:4;stroke-dasharray:none;stroke-opacity:1;" />
  <text
     id="text39"
     y="8.383500"
     x="-32.602500"
     transform="matrix(1.000000,-0.000000,0.000000,1.000000,416.844094,584.937323)"
     style="font-size:11.500000px;font-style:normal;font-variant:normal;font-weight:700;font-stretch:Normal;line-height:125.000000%;letter-spacing:0px;word-spacing:0px;fill:#000000;fill-opacity:1;stroke:none;font-family:Arial;text-align:start;text-anchor:start;"
     xml:space="preserve"><tspan
       id="tspan37"
       y="8.383500"
       x="-32.602500"><tspan
         id="tspan35"
         style="fill:#000000;font-size:11.500000px;font-style:normal;font-variant:normal;font-weight:700;font-stretch:Normal;font-family:Arial;"
         dy="0.000000"
         dx="0.000000">1.5ms</tspan></tspan></text>
  <path
     id="path41"
     d="  M 401.2548,578.83717   L 401.2548,14.233701  "
     style="fill:none;stroke:#646464;stroke-width:0.67779529px;stroke-linecap:round;stroke-linejoin:round;stroke-miterlimit:4;stroke-dasharray:1,1;stroke-dashoffset:0;stroke-opacity:1;" />
  <path
     id="path43"
     d="  M 527.32472,578.83717   L 527.32472,584.93732  "
     style="fill:none;stroke:#000000;stroke-width:2.7111812px;stroke-linecap:round;stroke-linejoin:round;stroke-miterlimit:4;stroke-dasharray:none;stroke-opacity:1;" />
  <text
     id="text49"
     y="8.383500"
     x="-32.602500"
     transform="matrix(1.000000,-0.000000,0.000000,1.000000,542.914016,584.937323)"
     style="font-size:11.500000px;font-style:normal;font-variant:normal;font-weight:700;font-stretch:Normal;line-height:125.000000%;letter-spacing:0px;word-spacing:0px;fill:#000000;fill-opacity:1;stroke:none;font-family:Arial;text-align:start;text-anchor:start;"
     xml:space="preserve"><tspan
       id="tspan47"
       y="8.383500"
       x="-32.602500"><tspan
         id="tspan45"
         style="fill:#000000;font-size:11.500000px;font-style:normal;font-variant:normal;font-weight:700;font-stretch:Normal;font-family:Arial;"
         dy="0.000000"
         dx="0.000000">2.0ms</tspan></tspan></text>
  <path
     id="path51"
     d="  M 527.32472,578.83717   L 527.32472,14.233701  "
     style="fill:none;stroke:#646464;stroke-width:0.67779529px;stroke-linecap:round;stroke-linejoin:round;stroke-miterlimit:4;stroke-dasharray:1,1;stroke-dashoffset:0;stroke-opacity:1;" />
  <path
     id="path53"
     d="  M 653.39465,578.83717   L 653.39465,584.93732  "
     style="fill:none;stroke:#000000;stroke-width:2.7111812px;stroke-linecap:round;stroke-linejoin:round;stroke-miterlimit:4;stroke-dasharray:none;stroke-opacity:1;" />
  <text
     id="text59"
     y="8.383500"
     x="-32.602500"
     transform="matrix(1.000000,-0.000000,0.000000,1.000000,668.983937,584.937323)"
     style="font-size:11.500000px;font-style:normal;font-variant:normal;font-weight:700;font-stretch:Normal;line-height:125.000000%;letter-spacing:0px;word-spacing:0px;fill:#000000;fill-opacity:1;stroke:none;font-family:Arial;text-align:start;text-anchor:start;"
     xml:space="preserve"><tspan
       id="tspan57"
       y="8.383500"
       x="-32.602500"><tspan
         id="tspan55"
         style="fill:#000000;font-size:11.500000px;font-style:normal;font-variant:normal;font-weight:700;font-stretch:Normal;font-family:Arial;"
         dy="0.000000"
         dx="0.000000">2.5ms</tspan></tspan></text>
  <path
     id="path61"
     d="  M 653.39465,578.83717   L 653.39465,14.233701  "
     style="fill:none;stroke:#646464;stroke-width:0.67779529px;stroke-linecap:round;stroke-linejoin:round;stroke-miterlimit:4;stroke-dasharray:1,1;stroke-dashoffset:0;stroke-opacity:1;" />
  <path
     id="path63"
     d="  M 779.46457,578.83717   L 779.46457,584.93732  "
     style="fill:none;stroke:#000000;stroke-width:2.7111812px;stroke-linecap:round;stroke-linejoin:round;stroke-miterlimit:4;stroke-dasharray:none;stroke-opacity:1;" />
  <text
     id="text69"
     y="8.383500"
     x="-32.602500"
     transform="matrix(1.000000,-0.000000,0.000000,1.000000,795.053858,584.937323)"
     style="font-size:11.500000px;font-style:normal;font-variant:normal;font-weight:700;font-stretch:Normal;line-height:125.000000%;letter-spacing:0px;word-spacing:0px;fill:#000000;fill-opacity:1;stroke:none;font-family:Arial;text-align:start;text-anchor:start;"
     xml:space="preserve"><tspan
       id="tspan67"
       y="8.383500"
       x="-32.602500"><tspan
         id="tspan65"
         style="fill:#000000;font-size:11.500000px;font-style:normal;font-variant:normal;font-weight:700;font-stretch:Normal;font-family:Arial;"
         dy="0.000000"
         dx="0.000000">3.0ms</tspan></tspan></text>
  <path
     id="path71"
     d="  M 779.46457,578.83717   L 779.46457,14.233701  "
     style="fill:none;stroke:#646464;stroke-width:0.67779529px;stroke-linecap:round;stroke-linejoin:round;stroke-miterlimit:4;stroke-dasharray:1,1;stroke-dashoffset:0;stroke-opacity:1;" />
  <path
     id="path73"
     d="  M 905.53449,578.83717   L 905.53449,584.93732  "
     style="fill:none;stroke:#000000;stroke-width:2.7111812px;stroke-linecap:round;stroke-linejoin:round;stroke-miterlimit:4;stroke-dasharray:none;stroke-opacity:1;" />
  <text
     id="text79"
     y="8.383500"
     x="-32.602500"
     transform="matrix(1.000000,-0.000000,0.000000,1.000000,921.123780,584.937323)"
     style="font-size:11.500000px;font-style:normal;font-variant:normal;font-weight:700;font-stretch:Normal;line-height:125.000000%;letter-spacing:0px;word-spacing:0px;fill:#000000;fill-opacity:1;stroke:none;font-family:Arial;text-align:start;text-anchor:start;"
     xml:space="preserve"><tspan
       id="tspan77"
       y="8.383500"
       x="-32.602500"><tspan
         id="tspan75"
         style="fill:#000000;font-size:11.500000px;font-style:normal;font-variant:normal;font-weight:700;font-stretch:Normal;font-family:Arial;"
         dy="0.000000"
         dx="0.000000">3.5ms</tspan></tspan></text>
  <path
     id="path81"
     d="  M 905.53449,578.83717   L 905.53449,14.233701  "
     style="fill:none;stroke:#646464;stroke-width:0.67779529px;stroke-linecap:round;stroke-linejoin:round;stroke-miterlimit:4;stroke-dasharray:1,1;stroke-dashoffset:0;stroke-opacity:1;" />
  <path
     id="path83"
     d="  M 1030.9266,578.83717   L 1030.9266,584.93732  "
     style="fill:none;stroke:#000000;stroke-width:2.7111812px;stroke-linecap:round;stroke-linejoin:round;stroke-miterlimit:4;stroke-dasharray:none;stroke-opacity:1;" />
  <text
     id="text89"
     y="8.383500"
     x="-32.602500"
     transform="matrix(1.000000,-0.000000,0.000000,1.000000,1046.515906,584.937323)"
     style="font-size:11.500000px;font-style:normal;font-variant:normal;font-weight:700;font-stretch:Normal;line-height:125.000000%;letter-spacing:0px;word-spacing:0px;fill:#000000;fill-opacity:1;stroke:none;font-family:Arial;text-align:start;text-anchor:start;"
     xml:space="preserve"><tspan
       id="tspan87"
       y="8.383500"
       x="-32.602500"><tspan
         id="tspan85"
         style="fill:#000000;font-size:11.500000px;font-style:normal;font-variant:normal;font-weight:700;font-stretch:Normal;font-family:Arial;"
         dy="0.000000"
         dx="0.000000">4.0ms</tspan></tspan></text>
  <path
     id="path91"
     d="  M 1030.9266,578.83717   L 1030.9266,14.233701  "
     style="fill:none;stroke:#646464;stroke-width:0.67779529px;stroke-linecap:round;stroke-linejoin:round;stroke-miterlimit:4;stroke-dasharray:1,1;stroke-dashoffset:0;stroke-opacity:1;" />
  <path
     id="path93"
     d="  M 1156.9965,578.83717   L 1156.9965,584.93732  "
     style="fill:none;stroke:#000000;stroke-width:2.7111812px;stroke-linecap:round;stroke-linejoin:round;stroke-miterlimit:4;stroke-dasharray:none;stroke-opacity:1;" />
  <text
     id="text99"
     y="8.383500"
     x="-32.602500"
     transform="matrix(1.000000,-0.000000,0.000000,1.000000,1172.585827,584.937323)"
     style="font-size:11.500000px;font-style:normal;font-variant:normal;font-weight:700;font-stretch:Normal;line-height:125.000000%;letter-spacing:0px;word-spacing:0px;fill:#000000;fill-opacity:1;stroke:none;font-family:Arial;text-align:start;text-anchor:start;"
     xml:space="preserve"><tspan
       id="tspan97"
       y="8.383500"
       x="-32.602500"><tspan
         id="tspan95"
         style="fill:#000000;font-size:11.500000px;font-style:normal;font-variant:normal;font-weight:700;font-stretch:Normal;font-family:Arial;"
         dy="0.000000"
         dx="0.000000">4.5ms</tspan></tspan></text>
  <path
     id="path101"
     d="  M 1156.9965,578.83717   L 1156.9965,14.233701  "
     style="fill:none;stroke:#646464;stroke-width:0.67779529px;stroke-linecap:round;stroke-linejoin:round;stroke-miterlimit:4;stroke-dasharray:1,1;stroke-dashoffset:0;stroke-opacity:1;" />
  <text
     id="text107"
     y="8.383500"
     x="-17.894000"
     transform="matrix(1.000000,-0.000000,0.000000,1.000000,17.622677,572.737008)"
     style="font-size:11.500000px;font-style:normal;font-variant:normal;font-weight:700;font-stretch:Normal;line-height:125.000000%;letter-spacing:0px;word-spacing:0px;fill:#000000;fill-opacity:1;stroke:none;font-family:Arial;text-align:start;text-anchor:start;"
     xml:space="preserve"><tspan
       id="tspan105"
       y="8.383500"
       x="-17.894000"><tspan
         id="tspan103"
         style="fill:#000000;font-size:11.500000px;font-style:normal;font-variant:normal;font-weight:700;font-stretch:Normal;font-family:Arial;"
         dy="0.000000"
         dx="0.000000">-6V</tspan></tspan></text>
  <path
     id="path109"
     d="  M 23.722835,578.83717   L 17.622677,578.83717  "
     style="fill:none;stroke:#000000;stroke-width:2.7111812px;stroke-linecap:round;stroke-linejoin:round;stroke-miterlimit:4;stroke-dasharray:none;stroke-opacity:1;" />
  <text
     id="text115"
     y="8.383500"
     x="-17.894000"
     transform="matrix(1.000000,-0.000000,0.000000,1.000000,17.622677,525.969134)"
     style="font-size:11.500000px;font-style:normal;font-variant:normal;font-weight:700;font-stretch:Normal;line-height:125.000000%;letter-spacing:0px;word-spacing:0px;fill:#000000;fill-opacity:1;stroke:none;font-family:Arial;text-align:start;text-anchor:start;"
     xml:space="preserve"><tspan
       id="tspan113"
       y="8.383500"
       x="-17.894000"><tspan
         id="tspan111"
         style="fill:#000000;font-size:11.500000px;font-style:normal;font-variant:normal;font-weight:700;font-stretch:Normal;font-family:Arial;"
         dy="0.000000"
         dx="0.000000">-5V</tspan></tspan></text>
  <path
     id="path117"
     d="  M 23.722835,532.06929   L 17.622677,532.06929  "
     style="fill:none;stroke:#000000;stroke-width:2.7111812px;stroke-linecap:round;stroke-linejoin:round;stroke-miterlimit:4;stroke-dasharray:none;stroke-opacity:1;" />
  <path
     id="path119"
     d="  M 23.722835,532.06929   L 1283.0665,532.06929  "
     style="fill:none;stroke:#646464;stroke-width:0.67779529px;stroke-linecap:round;stroke-linejoin:round;stroke-miterlimit:4;stroke-dasharray:1,1;stroke-dashoffset:0;stroke-opacity:1;" />
  <text
     id="text125"
     y="8.383500"
     x="-17.894000"
     transform="matrix(1.000000,-0.000000,0.000000,1.000000,17.622677,478.523465)"
     style="font-size:11.500000px;font-style:normal;font-variant:normal;font-weight:700;font-stretch:Normal;line-height:125.000000%;letter-spacing:0px;word-spacing:0px;fill:#000000;fill-opacity:1;stroke:none;font-family:Arial;text-align:start;text-anchor:start;"
     xml:space="preserve"><tspan
       id="tspan123"
       y="8.383500"
       x="-17.894000"><tspan
         id="tspan121"
         style="fill:#000000;font-size:11.500000px;font-style:normal;font-variant:normal;font-weight:700;font-stretch:Normal;font-family:Arial;"
         dy="0.000000"
         dx="0.000000">-4V</tspan></tspan></text>
  <path
     id="path127"
     d="  M 23.722835,484.62362   L 17.622677,484.62362  "
     style="fill:none;stroke:#000000;stroke-width:2.7111812px;stroke-linecap:round;stroke-linejoin:round;stroke-miterlimit:4;stroke-dasharray:none;stroke-opacity:1;" />
  <path
     id="path129"
     d="  M 23.722835,484.62362   L 1283.0665,484.62362  "
     style="fill:none;stroke:#646464;stroke-width:0.67779529px;stroke-linecap:round;stroke-linejoin:round;stroke-miterlimit:4;stroke-dasharray:1,1;stroke-dashoffset:0;stroke-opacity:1;" />
  <text
     id="text135"
     y="8.383500"
     x="-17.894000"
     transform="matrix(1.000000,-0.000000,0.000000,1.000000,17.622677,431.755591)"
     style="font-size:11.500000px;font-style:normal;font-variant:normal;font-weight:700;font-stretch:Normal;line-height:125.000000%;letter-spacing:0px;word-spacing:0px;fill:#000000;fill-opacity:1;stroke:none;font-family:Arial;text-align:start;text-anchor:start;"
     xml:space="preserve"><tspan
       id="tspan133"
       y="8.383500"
       x="-17.894000"><tspan
         id="tspan131"
         style="fill:#000000;font-size:11.500000px;font-style:normal;font-variant:normal;font-weight:700;font-stretch:Normal;font-family:Arial;"
         dy="0.000000"
         dx="0.000000">-3V</tspan></tspan></text>
  <path
     id="path137"
     d="  M 23.722835,437.85575   L 17.622677,437.85575  "
     style="fill:none;stroke:#000000;stroke-width:2.7111812px;stroke-linecap:round;stroke-linejoin:round;stroke-miterlimit:4;stroke-dasharray:none;stroke-opacity:1;" />
  <path
     id="path139"
     d="  M 23.722835,437.85575   L 1283.0665,437.85575  "
     style="fill:none;stroke:#646464;stroke-width:0.67779529px;stroke-linecap:round;stroke-linejoin:round;stroke-miterlimit:4;stroke-dasharray:1,1;stroke-dashoffset:0;stroke-opacity:1;" />
  <text
     id="text145"
     y="8.383500"
     x="-17.894000"
     transform="matrix(1.000000,-0.000000,0.000000,1.000000,17.622677,384.309921)"
     style="font-size:11.500000px;font-style:normal;font-variant:normal;font-weight:700;font-stretch:Normal;line-height:125.000000%;letter-spacing:0px;word-spacing:0px;fill:#000000;fill-opacity:1;stroke:none;font-family:Arial;text-align:start;text-anchor:start;"
     xml:space="preserve"><tspan
       id="tspan143"
       y="8.383500"
       x="-17.894000"><tspan
         id="tspan141"
         style="fill:#000000;font-size:11.500000px;font-style:normal;font-variant:normal;font-weight:700;font-stretch:Normal;font-family:Arial;"
         dy="0.000000"
         dx="0.000000">-2V</tspan></tspan></text>
  <path
     id="path147"
     d="  M 23.722835,390.41008   L 17.622677,390.41008  "
     style="fill:none;stroke:#000000;stroke-width:2.7111812px;stroke-linecap:round;stroke-linejoin:round;stroke-miterlimit:4;stroke-dasharray:none;stroke-opacity:1;" />
  <path
     id="path149"
     d="  M 23.722835,390.41008   L 1283.0665,390.41008  "
     style="fill:none;stroke:#646464;stroke-width:0.67779529px;stroke-linecap:round;stroke-linejoin:round;stroke-miterlimit:4;stroke-dasharray:1,1;stroke-dashoffset:0;stroke-opacity:1;" />
  <text
     id="text155"
     y="8.383500"
     x="-17.894000"
     transform="matrix(1.000000,-0.000000,0.000000,1.000000,17.622677,337.542047)"
     style="font-size:11.500000px;font-style:normal;font-variant:normal;font-weight:700;font-stretch:Normal;line-height:125.000000%;letter-spacing:0px;word-spacing:0px;fill:#000000;fill-opacity:1;stroke:none;font-family:Arial;text-align:start;text-anchor:start;"
     xml:space="preserve"><tspan
       id="tspan153"
       y="8.383500"
       x="-17.894000"><tspan
         id="tspan151"
         style="fill:#000000;font-size:11.500000px;font-style:normal;font-variant:normal;font-weight:700;font-stretch:Normal;font-family:Arial;"
         dy="0.000000"
         dx="0.000000">-1V</tspan></tspan></text>
  <path
     id="path157"
     d="  M 23.722835,343.6422   L 17.622677,343.6422  "
     style="fill:none;stroke:#000000;stroke-width:2.7111812px;stroke-linecap:round;stroke-linejoin:round;stroke-miterlimit:4;stroke-dasharray:none;stroke-opacity:1;" />
  <path
     id="path159"
     d="  M 23.722835,343.6422   L 1283.0665,343.6422  "
     style="fill:none;stroke:#646464;stroke-width:0.67779529px;stroke-linecap:round;stroke-linejoin:round;stroke-miterlimit:4;stroke-dasharray:1,1;stroke-dashoffset:0;stroke-opacity:1;" />
  <text
     id="text165"
     y="8.383500"
     x="-14.064500"
     transform="matrix(1.000000,-0.000000,0.000000,1.000000,17.622677,290.774173)"
     style="font-size:11.500000px;font-style:normal;font-variant:normal;font-weight:700;font-stretch:Normal;line-height:125.000000%;letter-spacing:0px;word-spacing:0px;fill:#000000;fill-opacity:1;stroke:none;font-family:Arial;text-align:start;text-anchor:start;"
     xml:space="preserve"><tspan
       id="tspan163"
       y="8.383500"
       x="-14.064500"><tspan
         id="tspan161"
         style="fill:#000000;font-size:11.500000px;font-style:normal;font-variant:normal;font-weight:700;font-stretch:Normal;font-family:Arial;"
         dy="0.000000"
         dx="0.000000">0V</tspan></tspan></text>
  <path
     id="path167"
     d="  M 23.722835,296.87433   L 17.622677,296.87433  "
     style="fill:none;stroke:#000000;stroke-width:2.7111812px;stroke-linecap:round;stroke-linejoin:round;stroke-miterlimit:4;stroke-dasharray:none;stroke-opacity:1;" />
  <path
     id="path169"
     d="  M 23.722835,296.87433   L 1283.0665,296.87433  "
     style="fill:none;stroke:#646464;stroke-width:0.67779529px;stroke-linecap:round;stroke-linejoin:round;stroke-miterlimit:4;stroke-dasharray:1,1;stroke-dashoffset:0;stroke-opacity:1;" />
  <text
     id="text175"
     y="8.383500"
     x="-14.064500"
     transform="matrix(1.000000,-0.000000,0.000000,1.000000,17.622677,243.328504)"
     style="font-size:11.500000px;font-style:normal;font-variant:normal;font-weight:700;font-stretch:Normal;line-height:125.000000%;letter-spacing:0px;word-spacing:0px;fill:#000000;fill-opacity:1;stroke:none;font-family:Arial;text-align:start;text-anchor:start;"
     xml:space="preserve"><tspan
       id="tspan173"
       y="8.383500"
       x="-14.064500"><tspan
         id="tspan171"
         style="fill:#000000;font-size:11.500000px;font-style:normal;font-variant:normal;font-weight:700;font-stretch:Normal;font-family:Arial;"
         dy="0.000000"
         dx="0.000000">1V</tspan></tspan></text>
  <path
     id="path177"
     d="  M 23.722835,249.42866   L 17.622677,249.42866  "
     style="fill:none;stroke:#000000;stroke-width:2.7111812px;stroke-linecap:round;stroke-linejoin:round;stroke-miterlimit:4;stroke-dasharray:none;stroke-opacity:1;" />
  <path
     id="path179"
     d="  M 23.722835,249.42866   L 1283.0665,249.42866  "
     style="fill:none;stroke:#646464;stroke-width:0.67779529px;stroke-linecap:round;stroke-linejoin:round;stroke-miterlimit:4;stroke-dasharray:1,1;stroke-dashoffset:0;stroke-opacity:1;" />
  <text
     id="text185"
     y="8.383500"
     x="-14.064500"
     transform="matrix(1.000000,-0.000000,0.000000,1.000000,17.622677,196.560630)"
     style="font-size:11.500000px;font-style:normal;font-variant:normal;font-weight:700;font-stretch:Normal;line-height:125.000000%;letter-spacing:0px;word-spacing:0px;fill:#000000;fill-opacity:1;stroke:none;font-family:Arial;text-align:start;text-anchor:start;"
     xml:space="preserve"><tspan
       id="tspan183"
       y="8.383500"
       x="-14.064500"><tspan
         id="tspan181"
         style="fill:#000000;font-size:11.500000px;font-style:normal;font-variant:normal;font-weight:700;font-stretch:Normal;font-family:Arial;"
         dy="0.000000"
         dx="0.000000">2V</tspan></tspan></text>
  <path
     id="path187"
     d="  M 23.722835,202.66079   L 17.622677,202.66079  "
     style="fill:none;stroke:#000000;stroke-width:2.7111812px;stroke-linecap:round;stroke-linejoin:round;stroke-miterlimit:4;stroke-dasharray:none;stroke-opacity:1;" />
  <path
     id="path189"
     d="  M 23.722835,202.66079   L 1283.0665,202.66079  "
     style="fill:none;stroke:#646464;stroke-width:0.67779529px;stroke-linecap:round;stroke-linejoin:round;stroke-miterlimit:4;stroke-dasharray:1,1;stroke-dashoffset:0;stroke-opacity:1;" />
  <text
     id="text195"
     y="8.383500"
     x="-14.064500"
     transform="matrix(1.000000,-0.000000,0.000000,1.000000,17.622677,149.114961)"
     style="font-size:11.500000px;font-style:normal;font-variant:normal;font-weight:700;font-stretch:Normal;line-height:125.000000%;letter-spacing:0px;word-spacing:0px;fill:#000000;fill-opacity:1;stroke:none;font-family:Arial;text-align:start;text-anchor:start;"
     xml:space="preserve"><tspan
       id="tspan193"
       y="8.383500"
       x="-14.064500"><tspan
         id="tspan191"
         style="fill:#000000;font-size:11.500000px;font-style:normal;font-variant:normal;font-weight:700;font-stretch:Normal;font-family:Arial;"
         dy="0.000000"
         dx="0.000000">3V</tspan></tspan></text>
  <path
     id="path197"
     d="  M 23.722835,155.21512   L 17.622677,155.21512  "
     style="fill:none;stroke:#000000;stroke-width:2.7111812px;stroke-linecap:round;stroke-linejoin:round;stroke-miterlimit:4;stroke-dasharray:none;stroke-opacity:1;" />
  <path
     id="path199"
     d="  M 23.722835,155.21512   L 1283.0665,155.21512  "
     style="fill:none;stroke:#646464;stroke-width:0.67779529px;stroke-linecap:round;stroke-linejoin:round;stroke-miterlimit:4;stroke-dasharray:1,1;stroke-dashoffset:0;stroke-opacity:1;" />
  <text
     id="text205"
     y="8.383500"
     x="-14.064500"
     transform="matrix(1.000000,-0.000000,0.000000,1.000000,17.622677,102.347087)"
     style="font-size:11.500000px;font-style:normal;font-variant:normal;font-weight:700;font-stretch:Normal;line-height:125.000000%;letter-spacing:0px;word-spacing:0px;fill:#000000;fill-opacity:1;stroke:none;font-family:Arial;text-align:start;text-anchor:start;"
     xml:space="preserve"><tspan
       id="tspan203"
       y="8.383500"
       x="-14.064500"><tspan
         id="tspan201"
         style="fill:#000000;font-size:11.500000px;font-style:normal;font-variant:normal;font-weight:700;font-stretch:Normal;font-family:Arial;"
         dy="0.000000"
         dx="0.000000">4V</tspan></tspan></text>
  <path
     id="path207"
     d="  M 23.722835,108.44724   L 17.622677,108.44724  "
     style="fill:none;stroke:#000000;stroke-width:2.7111812px;stroke-linecap:round;stroke-linejoin:round;stroke-miterlimit:4;stroke-dasharray:none;stroke-opacity:1;" />
  <path
     id="path209"
     d="  M 23.722835,108.44724   L 1283.0665,108.44724  "
     style="fill:none;stroke:#646464;stroke-width:0.67779529px;stroke-linecap:round;stroke-linejoin:round;stroke-miterlimit:4;stroke-dasharray:1,1;stroke-dashoffset:0;stroke-opacity:1;" />
  <text
     id="text215"
     y="8.383500"
     x="-14.064500"
     transform="matrix(1.000000,-0.000000,0.000000,1.000000,17.622677,54.901417)"
     style="font-size:11.500000px;font-style:normal;font-variant:normal;font-weight:700;font-stretch:Normal;line-height:125.000000%;letter-spacing:0px;word-spacing:0px;fill:#000000;fill-opacity:1;stroke:none;font-family:Arial;text-align:start;text-anchor:start;"
     xml:space="preserve"><tspan
       id="tspan213"
       y="8.383500"
       x="-14.064500"><tspan
         id="tspan211"
         style="fill:#000000;font-size:11.500000px;font-style:normal;font-variant:normal;font-weight:700;font-stretch:Normal;font-family:Arial;"
         dy="0.000000"
         dx="0.000000">5V</tspan></tspan></text>
  <path
     id="path217"
     d="  M 23.722835,61.001575   L 17.622677,61.001575  "
     style="fill:none;stroke:#000000;stroke-width:2.7111812px;stroke-linecap:round;stroke-linejoin:round;stroke-miterlimit:4;stroke-dasharray:none;stroke-opacity:1;" />
  <path
     id="path219"
     d="  M 23.722835,61.001575   L 1283.0665,61.001575  "
     style="fill:none;stroke:#646464;stroke-width:0.67779529px;stroke-linecap:round;stroke-linejoin:round;stroke-miterlimit:4;stroke-dasharray:1,1;stroke-dashoffset:0;stroke-opacity:1;" />
  <text
     id="text225"
     y="8.383500"
     x="-14.064500"
     transform="matrix(1.000000,-0.000000,0.000000,1.000000,17.622677,8.133543)"
     style="font-size:11.500000px;font-style:normal;font-variant:normal;font-weight:700;font-stretch:Normal;line-height:125.000000%;letter-spacing:0px;word-spacing:0px;fill:#000000;fill-opacity:1;stroke:none;font-family:Arial;text-align:start;text-anchor:start;"
     xml:space="preserve"><tspan
       id="tspan223"
       y="8.383500"
       x="-14.064500"><tspan
         id="tspan221"
         style="fill:#000000;font-size:11.500000px;font-style:normal;font-variant:normal;font-weight:700;font-stretch:Normal;font-family:Arial;"
         dy="0.000000"
         dx="0.000000">6V</tspan></tspan></text>
  <path
     id="path227"
     d="  M 23.722835,14.233701   L 17.622677,14.233701  "
     style="fill:none;stroke:#000000;stroke-width:2.7111812px;stroke-linecap:round;stroke-linejoin:round;stroke-miterlimit:4;stroke-dasharray:none;stroke-opacity:1;" />
  <path
     id="path229"
     d="  M 23.722835,14.233701   L 1283.0665,14.233701   L 1283.0665,578.83717   L 23.722835,578.83717   L 23.722835,14.233701  "
     style="fill:none;stroke:#000000;stroke-width:2.7111812px;stroke-linecap:round;stroke-linejoin:round;stroke-miterlimit:4;stroke-dasharray:none;stroke-opacity:1;" />
  <text
     id="text235"
     y="8.383500"
     x="-19.803000"
     transform="matrix(1.000000,-0.000000,0.000000,1.000000,653.394646,0.000000)"
     style="font-size:11.500000px;font-style:normal;font-variant:normal;font-weight:700;font-stretch:Normal;line-height:125.000000%;letter-spacing:0px;word-spacing:0px;fill:#000000;fill-opacity:1;stroke:none;font-family:Arial;text-align:start;text-anchor:start;"
     xml:space="preserve"><tspan
       id="tspan233"
       y="8.383500"
       x="-19.803000"><tspan
         id="tspan231"
         style="fill:#0000FF;font-size:11.500000px;font-style:normal;font-variant:normal;font-weight:700;font-stretch:Normal;font-family:Arial;"
         dy="0.000000"
         dx="0.000000">V(vout)</tspan></tspan></text>
  <path
     id="path237"
     d="  M 23.722835,296.19654   L 23.722835,289.41858   L 24.40063,279.92945   L 24.40063,275.86268   L 24.40063,271.11811   L 24.40063,264.34016   L 24.40063,257.5622   L 25.078425,243.3285   L 25.078425,231.80598   L 25.75622,212.14992   L 26.434016,199.94961   L 26.434016,195.20504   L 26.434016,193.17165   L 27.111811,191.13827   L 27.789606,197.91622   L 28.467402,216.89449   L 29.822992,256.20661   L 30.500787,294.16315   L 30.500787,295.51874   L 30.500787,296.87433   L 31.178583,299.58551   L 31.178583,305.00787   L 31.178583,309.75244   L 31.178583,313.81921   L 31.178583,317.88598   L 31.856378,323.30835   L 31.856378,330.0863   L 32.534173,336.86425   L 32.534173,340.25323   L 33.211969,338.89764   L 33.889764,336.18646   L 33.889764,327.37512   L 34.567559,308.39685   L 34.567559,305.68567   L 35.245354,298.90772   L 35.245354,292.12976   L 35.245354,290.77417   L 35.245354,289.41858   L 35.245354,285.35181   L 35.245354,281.96283   L 35.245354,277.21827   L 35.245354,273.1515   L 35.92315,266.37354   L 35.92315,258.24   L 35.92315,242.65071   L 36.600945,227.06142   L 37.27874,197.91622   L 37.956535,166.73764   L 38.634331,151.14835   L 38.634331,143.6926   L 39.312126,139.62583   L 39.312126,136.91465   L 39.312126,135.55906   L 40.667717,143.0148   L 41.345512,162.67087   L 42.023307,201.98299   L 43.378898,250.78425   L 44.056693,275.86268   L 44.734488,287.3852   L 44.734488,292.80756   L 45.412283,295.51874   L 45.412283,296.87433   L 46.090079,292.80756   L 46.767874,284.67402   L 47.445669,272.4737   L 48.123465,245.36189   L 48.80126,204.69417   L 50.15685,160.63748   L 50.834646,132.84787   L 50.834646,119.96976   L 51.512441,113.19181   L 51.512441,109.80283   L 51.512441,107.76945   L 52.190236,109.12504   L 52.868031,117.25858   L 53.545827,138.94803   L 54.901417,182.32693   L 56.257008,234.51717   L 56.934803,261.62898   L 57.612598,274.50709   L 57.612598,281.28504   L 57.612598,284.67402   L 58.290394,286.7074   L 58.968189,284.67402   L 58.968189,277.21827   L 60.32378,256.20661   L 61.001575,214.18331   L 62.357165,164.02646   L 63.034961,138.27024   L 63.712756,126.06992   L 63.712756,120.64756   L 64.390551,117.93638   L 64.390551,116.58079   L 65.068346,120.64756   L 65.746142,130.13669   L 66.423937,153.85953   L 67.779528,200.6274   L 68.457323,256.88441   L 69.135118,286.02961   L 69.812913,300.26331   L 70.490709,307.04126   L 70.490709,311.10803   L 70.490709,313.81921   L 71.846299,308.39685   L 72.524094,296.87433   L 72.524094,294.84094   L 72.524094,292.80756   L 72.524094,290.77417   L 72.524094,288.06299   L 72.524094,284.67402   L 73.20189,281.28504   L 73.20189,277.89606   L 73.20189,271.79591   L 73.20189,265.01795   L 73.879685,250.78425   L 73.879685,237.22835   L 74.55748,210.79433   L 75.913071,183.00472   L 75.913071,170.12661   L 76.590866,164.02646   L 76.590866,161.31528   L 77.946457,165.38205   L 77.946457,175.54898   L 78.624252,200.6274   L 79.979843,247.39528   L 79.979843,257.5622   L 80.657638,271.11811   L 80.657638,283.31843   L 81.335433,299.58551   L 81.335433,315.1748   L 82.013228,325.34173   L 82.013228,336.18646   L 82.013228,346.35339   L 82.691024,357.87591   L 82.691024,363.97606   L 83.368819,367.36504   L 83.368819,369.39843   L 83.368819,370.75402   L 84.724409,365.33165   L 85.402205,349.06457   L 86.08,315.1748   L 86.08,311.10803   L 86.757795,301.6189   L 86.757795,294.16315   L 86.757795,286.7074   L 87.435591,278.57386   L 87.435591,272.4737   L 87.435591,265.69575   L 88.113386,254.85102   L 88.113386,246.03969   L 88.791181,231.80598   L 89.468976,224.35024   L 89.468976,222.99465   L 90.146772,224.35024   L 90.146772,228.41701   L 90.824567,239.93953   L 91.502362,263.66236   L 91.502362,271.11811   L 92.180157,279.25165   L 92.180157,286.02961   L 92.180157,295.51874   L 92.857953,307.71906   L 92.857953,319.24157   L 92.857953,328.73071   L 93.535748,338.21984   L 93.535748,355.16472   L 94.213543,370.75402   L 94.891339,399.22142   L 95.569134,418.19969   L 95.569134,424.97764   L 95.569134,428.36661   L 96.246929,431.0778   L 96.246929,432.43339   L 96.924724,428.36661   L 97.60252,415.4885   L 98.280315,384.30992   L 99.635906,334.15307   L 100.9915,302.97449   L 100.9915,288.74079   L 101.66929,282.64063   L 101.66929,279.92945   L 102.34709,278.57386   L 102.34709,279.92945   L 103.02488,283.31843   L 103.70268,292.80756   L 103.70268,306.36346   L 104.38047,319.91937   L 104.38047,330.76409   L 105.05827,344.32   L 105.05827,366.68724   L 105.73606,389.05449   L 107.09165,429.7222   L 107.76945,454.12283   L 107.76945,464.96756   L 108.44724,471.06772   L 108.44724,473.7789   L 108.44724,475.81228   L 109.80283,469.71213   L 110.48063,452.08945   L 111.15843,416.84409   L 112.51402,361.26488   L 113.19181,332.11969   L 113.86961,317.88598   L 114.5474,311.10803   L 114.5474,307.71906   L 114.5474,306.36346   L 115.2252,309.07465   L 115.90299,317.88598   L 116.58079,339.57543   L 117.93638,382.95433   L 119.29197,435.14457   L 119.96976,462.25638   L 119.96976,475.13449   L 120.64756,481.23465   L 120.64756,483.94583   L 121.32535,485.97921   L 122.00315,483.26803   L 122.00315,474.45669   L 122.68094,451.41165   L 124.03654,406.67717   L 125.39213,351.77575   L 126.06992,323.98614   L 126.74772,309.75244   L 126.74772,302.97449   L 127.42551,299.58551   L 127.42551,297.55213   L 127.42551,296.19654   L 128.10331,298.22992   L 128.7811,304.33008   L 128.7811,313.81921   L 129.4589,330.0863   L 130.13669,361.94268   L 131.49228,397.86583   L 132.17008,430.4   L 132.84787,445.98929   L 132.84787,453.44504   L 133.52567,456.15622   L 133.52567,457.51181   L 134.20346,453.44504   L 134.88126,444.6337   L 135.55906,421.58866   L 136.91465,376.17638   L 138.27024,309.75244   L 138.27024,305.68567   L 138.27024,298.22992   L 138.27024,291.45197   L 138.94803,284.67402   L 138.94803,280.60724   L 138.94803,276.54047   L 138.94803,271.79591   L 139.62583,263.66236   L 139.62583,257.5622   L 139.62583,254.85102   L 140.30362,253.49543   L 140.98142,259.59559   L 141.65921,275.18488   L 141.65921,277.21827   L 142.33701,280.60724   L 142.33701,284.67402   L 142.33701,288.74079   L 142.33701,294.16315   L 143.0148,302.97449   L 143.0148,304.33008   L 143.0148,309.07465   L 143.0148,312.46362   L 143.0148,315.1748   L 143.0148,318.56378   L 143.0148,323.98614   L 143.6926,333.47528   L 143.6926,343.6422   L 144.37039,362.62047   L 145.04819,380.24315   L 145.04819,393.12126   L 145.72598,399.22142   L 145.72598,401.2548   L 146.40378,402.61039   L 146.40378,400.57701   L 147.08157,397.18803   L 147.08157,387.0211   L 148.43717,362.62047   L 149.11496,315.8526   L 149.11496,310.43024   L 149.79276,303.65228   L 149.79276,290.77417   L 149.79276,284.67402   L 149.79276,277.89606   L 149.79276,273.82929   L 150.47055,269.76252   L 150.47055,260.95118   L 150.47055,250.78425   L 151.14835,231.12819   L 151.82614,215.5389   L 151.82614,203.33858   L 152.50394,197.23843   L 152.50394,194.52724   L 152.50394,191.81606   L 153.18173,190.46047   L 153.85953,196.56063   L 154.53732,212.14992   L 155.21512,246.03969   L 155.89291,254.17323   L 155.89291,263.66236   L 155.89291,272.4737   L 156.57071,283.99622   L 156.57071,300.9411   L 157.2485,305.00787   L 157.2485,309.07465   L 157.2485,311.10803   L 157.2485,313.14142   L 157.2485,315.8526   L 157.2485,321.95276   L 157.9263,329.4085   L 158.60409,336.18646   L 158.60409,338.89764   L 158.60409,340.25323   L 159.28189,338.89764   L 159.28189,336.18646   L 159.95969,326.69732   L 160.63748,306.36346   L 160.63748,302.97449   L 160.63748,296.19654   L 161.31528,283.99622   L 161.31528,275.18488   L 161.31528,267.72913   L 161.99307,259.59559   L 161.99307,250.10646   L 161.99307,237.22835   L 162.67087,212.14992   L 163.34866,189.78268   L 164.02646,158.60409   L 164.70425,147.08157   L 164.70425,141.65921   L 164.70425,138.27024   L 165.38205,136.23685   L 165.38205,134.88126   L 166.05984,136.23685   L 166.05984,141.65921   L 166.73764,157.9263   L 168.09323,194.52724   L 169.44882,248.07307   L 170.12661,274.50709   L 170.80441,286.7074   L 170.80441,292.80756   L 171.4822,295.51874   L 171.4822,296.87433   L 172.16,292.80756   L 172.8378,284.67402   L 172.8378,273.1515   L 173.51559,245.36189   L 174.87118,206.72756   L 175.54898,163.34866   L 176.22677,134.20346   L 176.90457,119.96976   L 177.58236,113.19181   L 177.58236,109.80283   L 177.58236,107.76945   L 178.26016,109.12504   L 178.93795,117.25858   L 179.61575,138.94803   L 180.97134,181.64913   L 182.32693,234.51717   L 183.00472,261.62898   L 183.00472,274.50709   L 183.68252,281.28504   L 183.68252,284.67402   L 184.36031,286.7074   L 185.03811,284.67402   L 185.03811,277.21827   L 185.71591,256.20661   L 187.0715,214.18331   L 188.42709,164.02646   L 189.10488,138.27024   L 189.78268,126.06992   L 189.78268,120.64756   L 190.46047,117.93638   L 190.46047,116.58079   L 191.13827,120.64756   L 191.81606,130.13669   L 192.49386,153.85953   L 193.17165,200.6274   L 194.52724,256.88441   L 195.20504,286.02961   L 195.88283,300.26331   L 195.88283,307.04126   L 196.56063,311.10803   L 196.56063,313.81921   L 197.91622,307.71906   L 198.59402,294.16315   L 198.59402,292.12976   L 198.59402,290.09638   L 198.59402,286.7074   L 198.59402,284.67402   L 198.59402,282.64063   L 199.27181,279.25165   L 199.27181,275.18488   L 199.27181,267.05134   L 199.27181,257.5622   L 199.94961,237.22835   L 200.6274,216.89449   L 201.3052,182.32693   L 201.98299,169.44882   L 202.66079,164.02646   L 202.66079,161.31528   L 203.33858,166.05984   L 204.01638,176.22677   L 204.69417,201.98299   L 206.04976,250.78425   L 206.72756,294.16315   L 208.08315,330.76409   L 208.76094,352.45354   L 208.76094,362.62047   L 208.76094,366.00945   L 209.43874,368.72063   L 209.43874,370.07622   L 210.79433,362.62047   L 211.47213,343.6422   L 212.14992,304.33008   L 212.14992,302.97449   L 212.82772,300.26331   L 212.82772,294.84094   L 212.82772,293.48535   L 212.82772,290.77417   L 212.82772,286.02961   L 212.82772,280.60724   L 212.82772,276.54047   L 213.50551,271.79591   L 213.50551,264.34016   L 213.50551,257.5622   L 214.18331,244.68409   L 214.18331,235.19496   L 214.8611,226.38362   L 215.5389,222.99465   L 216.21669,227.73921   L 216.89449,237.22835   L 217.57228,258.9178   L 217.57228,260.27339   L 217.57228,264.34016   L 217.57228,271.11811   L 217.57228,277.89606   L 218.25008,293.48535   L 218.92787,312.46362   L 218.92787,326.01953   L 218.92787,336.86425   L 219.60567,348.38677   L 219.60567,365.33165   L 220.28346,382.27654   L 220.96126,410.74394   L 220.96126,420.91087   L 221.63906,426.33323   L 221.63906,429.04441   L 221.63906,431.0778   L 222.31685,432.43339   L 222.99465,426.33323   L 223.67244,408.71055   L 225.02803,372.10961   L 226.38362,319.24157   L 227.06142,294.84094   L 227.06142,293.48535   L 227.06142,292.12976   L 227.06142,289.41858   L 227.06142,287.3852   L 227.06142,285.35181   L 227.73921,283.31843   L 227.73921,280.60724   L 228.41701,278.57386   L 229.0948,283.31843   L 229.0948,292.12976   L 229.7726,305.68567   L 230.45039,320.59717   L 230.45039,332.11969   L 231.12819,346.35339   L 231.12819,366.68724   L 231.80598,387.6989   L 232.48378,422.94425   L 233.16157,456.15622   L 233.83937,466.32315   L 233.83937,471.74551   L 234.51717,474.45669   L 234.51717,475.81228   L 235.19496,469.03433   L 235.87276,454.80063   L 237.22835,426.33323   L 237.90614,377.53197   L 239.26173,339.57543   L 239.93953,321.95276   L 239.93953,313.14142   L 240.61732,309.07465   L 240.61732,307.04126   L 240.61732,305.68567   L 241.29512,308.39685   L 241.97291,315.8526   L 242.65071,334.83087   L 243.3285,365.33165   L 244.68409,422.26646   L 245.36189,456.15622   L 246.03969,471.74551   L 246.71748,479.87906   L 246.71748,483.26803   L 246.71748,485.30142   L 247.39528,483.26803   L 248.07307,475.13449   L 248.75087,453.44504   L 250.10646,410.06614   L 251.46205,349.06457   L 252.13984,321.95276   L 252.81764,309.07465   L 252.81764,302.97449   L 252.81764,299.58551   L 253.49543,297.55213   L 253.49543,296.19654   L 254.17323,298.22992   L 254.85102,305.00787   L 254.85102,315.1748   L 255.52882,330.76409   L 256.20661,364.65386   L 257.5622,401.9326   L 258.24,432.43339   L 258.9178,446.66709   L 258.9178,453.44504   L 259.59559,456.83402   L 259.59559,458.18961   L 260.27339,456.83402   L 260.27339,453.44504   L 260.95118,443.95591   L 261.62898,420.91087   L 262.30677,374.14299   L 264.34016,307.71906   L 264.34016,303.65228   L 264.34016,296.19654   L 264.34016,294.84094   L 264.34016,291.45197   L 264.34016,285.35181   L 265.01795,281.28504   L 265.01795,277.21827   L 265.01795,272.4737   L 265.01795,264.34016   L 265.69575,258.24   L 265.69575,255.52882   L 266.37354,253.49543   L 267.05134,259.59559   L 267.72913,274.50709   L 267.72913,280.60724   L 268.40693,287.3852   L 268.40693,292.12976   L 268.40693,300.9411   L 269.08472,311.10803   L 269.08472,321.95276   L 269.76252,332.79748   L 269.76252,347.70898   L 270.44031,361.94268   L 271.11811,385.66551   L 271.11811,395.83244   L 271.79591,399.89921   L 271.79591,401.9326   L 272.4737,400.57701   L 273.1515,396.51024   L 273.1515,385.66551   L 273.82929,359.2315   L 275.18488,310.43024   L 275.18488,307.71906   L 275.18488,305.00787   L 275.86268,298.90772   L 275.86268,286.7074   L 275.86268,276.54047   L 275.86268,273.1515   L 275.86268,268.40693   L 276.54047,259.59559   L 276.54047,249.42866   L 277.21827,230.45039   L 277.21827,214.18331   L 277.89606,203.33858   L 277.89606,197.23843   L 278.57386,194.52724   L 278.57386,191.81606   L 278.57386,190.46047   L 279.92945,196.56063   L 280.60724,212.14992   L 281.28504,246.03969   L 281.28504,253.49543   L 281.96283,260.95118   L 281.96283,266.37354   L 281.96283,273.82929   L 282.64063,283.99622   L 282.64063,298.90772   L 282.64063,301.6189   L 282.64063,302.97449   L 282.64063,305.68567   L 283.31843,308.39685   L 283.31843,311.78583   L 283.31843,314.49701   L 283.31843,318.56378   L 283.31843,322.63055   L 283.99622,330.0863   L 283.99622,335.50866   L 284.67402,339.57543   L 285.35181,335.50866   L 286.02961,326.01953   L 286.7074,305.00787   L 286.7074,302.29669   L 286.7074,295.51874   L 286.7074,294.16315   L 286.7074,291.45197   L 287.3852,285.35181   L 287.3852,280.60724   L 287.3852,275.86268   L 287.3852,270.44031   L 287.3852,261.62898   L 288.06299,251.46205   L 288.06299,232.48378   L 288.74079,214.18331   L 289.41858,182.32693   L 290.09638,155.21512   L 290.77417,145.04819   L 290.77417,140.30362   L 290.77417,137.59244   L 291.45197,135.55906   L 292.12976,142.33701   L 292.80756,160.63748   L 294.16315,198.59402   L 295.51874,253.49543   L 296.19654,277.21827   L 296.87433,288.06299   L 296.87433,293.48535   L 296.87433,295.51874   L 297.55213,296.87433   L 297.55213,295.51874   L 298.22992,292.80756   L 298.90772,283.99622   L 298.90772,268.40693   L 299.58551,246.71748   L 300.9411,196.56063   L 302.29669,148.43717   L 302.97449,126.74772   L 302.97449,116.58079   L 303.65228,111.15843   L 303.65228,109.12504   L 303.65228,107.76945   L 305.00787,115.2252   L 305.68567,133.52567   L 306.36346,172.8378   L 307.71906,230.45039   L 308.39685,259.59559   L 309.07465,273.82929   L 309.75244,280.60724   L 309.75244,284.67402   L 309.75244,286.02961   L 310.43024,287.3852   L 310.43024,284.67402   L 311.10803,277.21827   L 311.78583,256.20661   L 313.14142,214.8611   L 314.49701,164.02646   L 315.1748,138.27024   L 315.1748,126.06992   L 315.8526,120.64756   L 315.8526,117.93638   L 316.53039,116.58079   L 317.20819,120.64756   L 317.20819,130.13669   L 317.88598,153.85953   L 319.24157,200.6274   L 320.59717,256.88441   L 321.27496,286.02961   L 321.95276,300.26331   L 321.95276,307.04126   L 322.63055,311.10803   L 322.63055,313.81921   L 323.98614,307.71906   L 324.66394,293.48535   L 324.66394,290.77417   L 324.66394,283.99622   L 324.66394,279.25165   L 325.34173,272.4737   L 325.34173,263.66236   L 325.34173,250.78425   L 326.01953,224.35024   L 326.69732,199.94961   L 327.37512,178.26016   L 328.05291,168.09323   L 328.73071,163.34866   L 328.73071,161.31528   L 329.4085,166.05984   L 330.0863,176.90457   L 330.76409,202.66079   L 332.11969,252.81764   L 332.79748,298.22992   L 332.79748,300.9411   L 332.79748,305.00787   L 333.47528,309.75244   L 333.47528,314.49701   L 333.47528,317.88598   L 333.47528,324.66394   L 333.47528,333.47528   L 334.15307,349.06457   L 334.83087,360.58709   L 334.83087,365.33165   L 334.83087,368.04283   L 335.50866,370.07622   L 336.18646,363.97606   L 336.86425,345.67559   L 338.21984,308.39685   L 338.21984,307.04126   L 338.21984,304.33008   L 338.21984,299.58551   L 338.89764,289.41858   L 338.89764,284.67402   L 338.89764,280.60724   L 338.89764,277.89606   L 338.89764,274.50709   L 339.57543,269.76252   L 339.57543,261.62898   L 339.57543,253.49543   L 340.25323,239.93953   L 340.93102,229.0948   L 340.93102,224.35024   L 341.60882,222.99465   L 341.60882,224.35024   L 342.28661,228.41701   L 342.96441,239.93953   L 343.6422,263.66236   L 343.6422,271.79591   L 343.6422,281.28504   L 344.32,288.06299   L 344.32,298.90772   L 344.32,300.9411   L 344.32,307.04126   L 344.32,314.49701   L 344.9978,317.88598   L 344.9978,322.63055   L 344.9978,328.05291   L 344.9978,338.21984   L 344.9978,349.74236   L 345.67559,370.07622   L 346.35339,390.41008   L 347.03118,413.45512   L 347.03118,422.26646   L 347.70898,427.01102   L 347.70898,429.7222   L 347.70898,431.75559   L 349.06457,424.97764   L 349.74236,406.67717   L 351.09795,368.04283   L 351.77575,320.59717   L 353.13134,295.51874   L 353.13134,294.16315   L 353.13134,292.80756   L 353.13134,290.09638   L 353.13134,288.06299   L 353.13134,286.02961   L 353.13134,284.67402   L 353.80913,282.64063   L 353.80913,280.60724   L 353.80913,278.57386   L 354.48693,282.64063   L 355.16472,290.77417   L 355.84252,303.65228   L 355.84252,318.56378   L 356.52031,331.44189   L 356.52031,346.35339   L 357.19811,369.39843   L 357.87591,397.18803   L 359.2315,440.56693   L 359.2315,458.8674   L 359.90929,467.67874   L 359.90929,472.42331   L 360.58709,474.45669   L 360.58709,475.81228   L 361.26488,474.45669   L 361.26488,468.35654   L 361.94268,448.70047   L 363.29827,408.71055   L 364.65386,352.45354   L 365.33165,327.37512   L 366.00945,315.8526   L 366.00945,310.43024   L 366.68724,307.71906   L 366.68724,306.36346   L 367.36504,309.07465   L 368.04283,317.88598   L 368.72063,340.93102   L 370.07622,385.66551   L 370.75402,437.17795   L 371.43181,462.93417   L 372.10961,475.13449   L 372.7874,481.23465   L 372.7874,484.62362   L 372.7874,485.97921   L 373.4652,482.59024   L 374.14299,473.7789   L 374.82079,450.73386   L 376.17638,405.32157   L 377.53197,351.09795   L 378.20976,323.30835   L 378.20976,309.75244   L 378.88756,302.97449   L 378.88756,299.58551   L 379.56535,297.55213   L 379.56535,296.19654   L 380.24315,298.22992   L 380.24315,304.33008   L 380.92094,314.49701   L 381.59874,331.44189   L 382.27654,361.94268   L 382.95433,396.51024   L 384.30992,430.4   L 384.30992,445.98929   L 384.98772,452.76724   L 384.98772,456.15622   L 385.66551,457.51181   L 386.34331,454.12283   L 386.34331,444.6337   L 387.6989,422.26646   L 388.37669,376.17638   L 389.73228,310.43024   L 389.73228,306.36346   L 390.41008,298.22992   L 390.41008,292.12976   L 390.41008,290.77417   L 390.41008,289.41858   L 390.41008,286.02961   L 390.41008,281.96283   L 390.41008,278.57386   L 391.08787,275.18488   L 391.08787,270.44031   L 391.08787,265.69575   L 391.76567,258.24   L 391.76567,254.85102   L 391.76567,252.81764   L 392.44346,254.17323   L 393.12126,260.27339   L 393.79906,276.54047   L 393.79906,278.57386   L 393.79906,281.96283   L 393.79906,286.7074   L 394.47685,290.09638   L 394.47685,296.19654   L 394.47685,304.33008   L 394.47685,307.71906   L 394.47685,311.10803   L 395.15465,313.14142   L 395.15465,315.8526   L 395.15465,320.59717   L 395.15465,328.05291   L 395.83244,342.96441   L 395.83244,355.84252   L 396.51024,378.88756   L 397.18803,393.12126   L 397.86583,399.22142   L 397.86583,401.9326   L 398.54362,400.57701   L 398.54362,397.18803   L 399.22142,387.0211   L 399.89921,361.94268   L 401.2548,315.1748   L 401.2548,309.75244   L 401.2548,304.33008   L 401.9326,292.12976   L 401.9326,279.25165   L 401.9326,268.40693   L 402.61039,257.5622   L 402.61039,242.65071   L 403.28819,229.0948   L 403.96598,206.72756   L 403.96598,199.27181   L 403.96598,195.20504   L 404.64378,192.49386   L 404.64378,191.13827   L 405.99937,198.59402   L 406.67717,218.25008   L 407.35496,258.24   L 408.71055,294.16315   L 409.38835,319.91937   L 410.06614,333.47528   L 410.06614,338.89764   L 410.74394,340.25323   L 411.42173,338.89764   L 411.42173,336.18646   L 412.09953,327.37512   L 412.77732,307.71906   L 412.77732,305.00787   L 412.77732,297.55213   L 412.77732,290.09638   L 412.77732,284.67402   L 413.45512,279.92945   L 413.45512,277.21827   L 413.45512,273.82929   L 413.45512,269.76252   L 413.45512,262.98457   L 414.13291,249.42866   L 414.13291,235.87276   L 414.81071,210.11654   L 415.4885,181.64913   L 416.1663,159.28189   L 416.1663,147.75937   L 416.84409,141.65921   L 416.84409,138.27024   L 416.84409,136.23685   L 417.52189,134.88126   L 418.19969,139.62583   L 418.87748,153.85953   L 419.55528,186.3937   L 420.91087,238.58394   L 421.58866,269.76252   L 422.26646,284.67402   L 422.94425,292.12976   L 422.94425,294.84094   L 422.94425,296.19654   L 424.29984,293.48535   L 424.29984,285.35181   L 424.97764,271.79591   L 425.65543,248.07307   L 426.33323,210.11654   L 427.68882,167.41543   L 428.36661,136.23685   L 429.04441,121.32535   L 429.04441,113.86961   L 429.04441,109.80283   L 429.7222,107.76945   L 430.4,109.12504   L 431.0778,117.25858   L 431.75559,138.94803   L 432.43339,182.32693   L 433.78898,235.19496   L 434.46677,261.62898   L 435.14457,275.18488   L 435.14457,281.28504   L 435.82236,284.67402   L 435.82236,286.7074   L 436.50016,284.67402   L 437.17795,277.21827   L 437.85575,256.20661   L 439.21134,214.18331   L 440.56693,164.02646   L 441.24472,138.27024   L 441.24472,126.06992   L 441.92252,120.64756   L 441.92252,117.93638   L 441.92252,116.58079   L 442.60031,120.64756   L 443.27811,130.13669   L 443.95591,153.85953   L 445.3115,200.6274   L 446.66709,256.88441   L 447.34488,286.02961   L 448.02268,300.26331   L 448.02268,307.04126   L 448.02268,311.10803   L 448.70047,313.81921   L 449.37827,308.39685   L 450.05606,296.87433   L 450.05606,294.84094   L 450.05606,292.80756   L 450.73386,288.06299   L 450.73386,283.31843   L 450.73386,278.57386   L 450.73386,273.82929   L 451.41165,267.72913   L 451.41165,258.9178   L 452.08945,241.29512   L 452.08945,224.35024   L 452.76724,193.84945   L 453.44504,174.19339   L 454.12283,166.05984   L 454.12283,161.99307   L 454.80063,160.63748   L 455.47843,161.99307   L 455.47843,164.70425   L 456.15622,173.51559   L 456.83402,195.88283   L 457.51181,239.93953   L 458.8674,282.64063   L 458.8674,288.06299   L 458.8674,298.22992   L 458.8674,300.26331   L 458.8674,307.71906   L 459.5452,314.49701   L 459.5452,316.53039   L 459.5452,321.27496   L 459.5452,329.4085   L 460.22299,340.93102   L 460.22299,351.77575   L 460.90079,363.29827   L 460.90079,366.68724   L 460.90079,369.39843   L 461.57858,370.75402   L 462.25638,365.33165   L 462.93417,350.42016   L 463.61197,317.88598   L 464.28976,312.46362   L 464.28976,306.36346   L 464.28976,302.29669   L 464.28976,296.19654   L 464.96756,285.35181   L 464.96756,277.21827   L 464.96756,270.44031   L 465.64535,264.34016   L 465.64535,253.49543   L 465.64535,244.68409   L 466.32315,230.45039   L 467.00094,224.35024   L 467.00094,222.31685   L 467.67874,224.35024   L 468.35654,228.41701   L 468.35654,239.93953   L 469.71213,264.34016   L 469.71213,273.82929   L 469.71213,283.99622   L 469.71213,292.12976   L 470.38992,303.65228   L 470.38992,314.49701   L 470.38992,317.88598   L 470.38992,321.95276   L 471.06772,330.76409   L 471.06772,343.6422   L 471.74551,361.26488   L 471.74551,382.95433   L 473.1011,410.74394   L 473.1011,420.91087   L 473.1011,426.33323   L 473.7789,429.04441   L 473.7789,431.75559   L 475.13449,425.65543   L 475.81228,408.71055   L 476.49008,371.43181   L 477.84567,318.56378   L 478.52346,294.84094   L 478.52346,293.48535   L 479.20126,291.45197   L 479.20126,289.41858   L 479.20126,287.3852   L 479.20126,285.35181   L 479.20126,283.31843   L 479.20126,281.28504   L 479.87906,279.92945   L 479.87906,278.57386   L 480.55685,279.92945   L 480.55685,283.31843   L 481.23465,292.12976   L 481.91244,305.68567   L 481.91244,318.56378   L 482.59024,329.4085   L 482.59024,342.96441   L 483.26803,356.52031   L 483.26803,375.49858   L 483.94583,401.9326   L 484.62362,428.36661   L 485.30142,458.8674   L 485.97921,467.67874   L 485.97921,472.42331   L 485.97921,474.45669   L 486.65701,475.81228   L 486.65701,474.45669   L 487.3348,468.35654   L 488.0126,455.47843   L 488.69039,429.04441   L 490.04598,387.0211   L 490.72378,344.32   L 491.40157,323.98614   L 492.07937,314.49701   L 492.07937,309.75244   L 492.75717,307.04126   L 493.43496,313.14142   L 494.11276,326.01953   L 494.79055,353.13134   L 496.14614,399.22142   L 496.82394,444.6337   L 497.50173,466.32315   L 498.17953,477.16787   L 498.17953,481.91244   L 498.85732,484.62362   L 498.85732,485.97921   L 499.53512,480.55685   L 500.21291,468.35654   L 500.89071,443.27811   L 502.2463,392.44346   L 503.60189,344.32   L 504.27969,319.91937   L 504.27969,308.39685   L 504.95748,302.29669   L 504.95748,298.90772   L 504.95748,296.87433   L 506.31307,299.58551   L 506.31307,307.71906   L 506.99087,319.24157   L 507.66866,337.54205   L 508.34646,380.24315   L 509.70205,418.87748   L 510.37984,440.56693   L 511.05764,450.73386   L 511.05764,455.47843   L 511.05764,457.51181   L 512.41323,452.76724   L 512.41323,442.60031   L 513.76882,416.1663   L 514.44661,367.36504   L 515.8022,309.07465   L 515.8022,305.00787   L 515.8022,297.55213   L 516.48,290.77417   L 516.48,285.35181   L 516.48,280.60724   L 516.48,279.25165   L 516.48,275.86268   L 517.1578,269.76252   L 517.1578,264.34016   L 517.83559,256.20661   L 517.83559,254.17323   L 517.83559,252.81764   L 519.19118,258.24   L 519.86898,273.82929   L 520.54677,293.48535   L 520.54677,295.51874   L 520.54677,298.22992   L 520.54677,305.00787   L 520.54677,311.10803   L 520.54677,313.81921   L 521.22457,317.20819   L 521.22457,321.95276   L 521.22457,331.44189   L 521.22457,340.25323   L 521.90236,357.87591   L 522.58016,374.82079   L 523.25795,392.44346   L 523.25795,398.54362   L 523.93575,401.2548   L 523.93575,402.61039   L 524.61354,400.57701   L 524.61354,397.18803   L 525.29134,387.0211   L 525.96913,363.29827   L 527.32472,316.53039   L 527.32472,310.43024   L 527.32472,298.22992   L 528.00252,285.35181   L 528.00252,273.1515   L 528.00252,263.66236   L 528.68031,253.49543   L 528.68031,239.93953   L 529.35811,226.38362   L 530.03591,204.69417   L 530.03591,197.91622   L 530.03591,194.52724   L 530.7137,192.49386   L 530.7137,191.13827   L 531.3915,195.88283   L 532.06929,211.47213   L 533.42488,246.03969   L 534.10268,290.77417   L 534.78047,293.48535   L 534.78047,295.51874   L 534.78047,298.22992   L 534.78047,302.29669   L 534.78047,305.68567   L 534.78047,309.75244   L 534.78047,311.10803   L 534.78047,313.81921   L 535.45827,317.20819   L 535.45827,321.95276   L 535.45827,326.69732   L 536.13606,334.15307   L 536.13606,339.57543   L 537.49165,335.50866   L 537.49165,326.01953   L 538.84724,305.00787   L 538.84724,301.6189   L 538.84724,294.16315   L 538.84724,292.80756   L 538.84724,289.41858   L 538.84724,285.35181   L 538.84724,281.28504   L 539.52504,277.89606   L 539.52504,274.50709   L 539.52504,268.40693   L 539.52504,261.62898   L 539.52504,248.07307   L 540.20283,234.51717   L 540.88063,208.76094   L 541.55843,182.32693   L 542.23622,159.28189   L 542.23622,147.75937   L 542.91402,141.65921   L 542.91402,138.27024   L 542.91402,136.23685   L 543.59181,134.88126   L 544.26961,140.30362   L 544.26961,153.85953   L 545.6252,186.3937   L 546.98079,238.58394   L 547.65858,270.44031   L 548.33638,284.67402   L 549.01417,292.12976   L 549.01417,294.84094   L 549.01417,296.19654   L 549.69197,293.48535   L 550.36976,285.35181   L 551.04756,273.1515   L 551.72535,247.39528   L 552.40315,209.43874   L 553.08094,167.41543   L 554.43654,136.23685   L 554.43654,121.32535   L 555.11433,113.86961   L 555.11433,109.80283   L 555.79213,107.76945   L 556.46992,109.12504   L 556.46992,117.25858   L 557.82551,138.94803   L 558.50331,182.32693   L 559.8589,235.19496   L 560.53669,261.62898   L 561.21449,275.18488   L 561.21449,281.28504   L 561.89228,284.67402   L 561.89228,286.7074   L 562.57008,284.67402   L 563.24787,277.21827   L 563.92567,256.20661   L 564.60346,214.18331   L 565.95906,164.02646   L 566.63685,138.27024   L 567.31465,126.06992   L 567.99244,120.64756   L 567.99244,117.93638   L 567.99244,116.58079   L 568.67024,120.64756   L 569.34803,130.13669   L 570.02583,153.85953   L 571.38142,200.6274   L 572.73701,256.88441   L 573.4148,286.02961   L 573.4148,300.26331   L 574.0926,307.04126   L 574.0926,311.10803   L 574.77039,313.81921   L 575.44819,307.71906   L 576.12598,294.16315   L 576.12598,291.45197   L 576.12598,288.74079   L 576.80378,285.35181   L 576.80378,282.64063   L 576.80378,279.92945   L 576.80378,273.82929   L 577.48157,263.66236   L 577.48157,246.03969   L 578.15937,227.73921   L 578.83717,193.17165   L 579.51496,174.87118   L 580.19276,166.05984   L 580.19276,162.67087   L 580.87055,160.63748   L 581.54835,164.02646   L 581.54835,170.80441   L 582.22614,189.10488   L 583.58173,228.41701   L 584.93732,291.45197   L 584.93732,298.22992   L 584.93732,310.43024   L 584.93732,317.20819   L 585.61512,325.34173   L 585.61512,334.15307   L 586.29291,347.70898   L 586.29291,358.5537   L 586.97071,364.65386   L 586.97071,367.36504   L 586.97071,369.39843   L 587.6485,370.75402   L 588.3263,364.65386   L 589.00409,347.70898   L 589.68189,313.14142   L 590.35969,309.75244   L 590.35969,302.29669   L 590.35969,288.06299   L 591.03748,283.31843   L 591.03748,279.25165   L 591.03748,277.21827   L 591.03748,272.4737   L 591.03748,263.66236   L 591.71528,252.81764   L 591.71528,241.29512   L 592.39307,227.73921   L 593.07087,223.67244   L 593.07087,222.31685   L 593.74866,223.67244   L 593.74866,227.06142   L 594.42646,235.87276   L 595.10425,256.20661   L 595.78205,268.40693   L 595.78205,281.96283   L 595.78205,294.16315   L 596.45984,309.07465   L 596.45984,322.63055   L 597.13764,332.79748   L 597.13764,343.6422   L 597.13764,358.5537   L 597.81543,375.49858   L 598.49323,404.64378   L 599.17102,418.87748   L 599.17102,425.65543   L 599.17102,429.04441   L 599.84882,431.0778   L 599.84882,432.43339   L 600.52661,427.01102   L 601.20441,411.42173   L 602.56,376.17638   L 603.91559,323.98614   L 604.59339,296.87433   L 604.59339,295.51874   L 604.59339,292.12976   L 604.59339,290.09638   L 605.27118,288.06299   L 605.27118,286.02961   L 605.27118,283.31843   L 605.27118,280.60724   L 605.94898,278.57386   L 606.62677,282.64063   L 607.30457,291.45197   L 607.30457,304.33008   L 607.98236,321.95276   L 608.66016,340.93102   L 608.66016,361.26488   L 610.01575,394.47685   L 610.01575,422.94425   L 611.37134,454.12283   L 611.37134,465.64535   L 612.04913,471.06772   L 612.04913,473.7789   L 612.04913,475.81228   L 613.40472,471.74551   L 613.40472,464.96756   L 614.08252,454.12283   L 614.76031,437.85575   L 614.76031,414.13291   L 616.11591,382.27654   L 616.7937,341.60882   L 617.4715,322.63055   L 618.14929,313.81921   L 618.14929,309.07465   L 618.14929,307.04126   L 619.50488,308.39685   L 619.50488,313.81921   L 620.18268,322.63055   L 620.18268,338.89764   L 620.86047,362.62047   L 622.21606,395.83244   L 622.89386,442.60031   L 623.57165,465.64535   L 624.24945,476.49008   L 624.24945,481.91244   L 624.92724,484.62362   L 624.92724,485.97921   L 625.60504,482.59024   L 625.60504,477.16787   L 626.28283,464.96756   L 626.96063,443.95591   L 627.63843,411.42173   L 628.99402,361.26488   L 629.67181,328.73071   L 630.34961,312.46362   L 630.34961,304.33008   L 631.0274,300.26331   L 631.0274,298.22992   L 631.0274,296.87433   L 631.7052,298.22992   L 632.38299,302.97449   L 632.38299,310.43024   L 633.06079,321.95276   L 633.73858,352.45354   L 635.09417,397.86583   L 636.44976,437.17795   L 636.44976,449.37827   L 637.12756,454.80063   L 637.12756,456.83402   L 637.12756,458.18961   L 637.80535,456.83402   L 637.80535,453.44504   L 638.48315,443.27811   L 639.16094,420.91087   L 640.51654,377.53197   L 641.87213,311.78583   L 641.87213,307.04126   L 641.87213,299.58551   L 641.87213,294.16315   L 642.54992,288.06299   L 642.54992,281.28504   L 642.54992,276.54047   L 642.54992,271.79591   L 643.22772,265.01795   L 643.22772,258.9178   L 643.90551,255.52882   L 643.90551,253.49543   L 644.58331,258.9178   L 645.2611,272.4737   L 645.9389,279.25165   L 645.9389,286.7074   L 645.9389,292.80756   L 646.61669,302.29669   L 646.61669,307.04126   L 646.61669,311.78583   L 646.61669,314.49701   L 646.61669,317.88598   L 647.29449,321.95276   L 647.29449,330.0863   L 647.29449,338.21984   L 647.97228,354.48693   L 647.97228,370.07622   L 649.32787,393.79906   L 649.32787,399.22142   L 650.00567,401.9326   L 650.68346,400.57701   L 650.68346,396.51024   L 651.36126,385.66551   L 652.03906,359.90929   L 653.39465,311.78583   L 653.39465,307.04126   L 653.39465,305.00787   L 653.39465,300.9411   L 653.39465,296.19654   L 653.39465,286.7074   L 654.07244,277.21827   L 654.07244,273.82929   L 654.07244,269.08472   L 654.07244,259.59559   L 654.75024,248.07307   L 654.75024,229.7726   L 655.42803,212.82772   L 655.42803,202.66079   L 656.10583,197.23843   L 656.10583,193.84945   L 656.10583,191.81606   L 656.78362,190.46047   L 657.46142,196.56063   L 658.13921,213.50551   L 659.4948,248.07307   L 659.4948,250.10646   L 659.4948,261.62898   L 659.4948,269.08472   L 660.1726,283.31843   L 660.1726,286.7074   L 660.1726,293.48535   L 660.85039,300.9411   L 660.85039,302.97449   L 660.85039,306.36346   L 660.85039,310.43024   L 660.85039,313.81921   L 660.85039,316.53039   L 661.52819,321.95276   L 661.52819,326.69732   L 662.20598,333.47528   L 662.20598,338.89764   L 662.20598,340.25323   L 662.88378,338.89764   L 663.56157,336.18646   L 663.56157,327.37512   L 664.23937,308.39685   L 664.23937,305.00787   L 664.91717,298.22992   L 664.91717,290.77417   L 664.91717,286.02961   L 664.91717,280.60724   L 664.91717,277.89606   L 664.91717,273.1515   L 665.59496,265.01795   L 665.59496,248.75087   L 666.27276,233.16157   L 666.95055,204.01638   L 667.62835,168.77102   L 668.30614,152.50394   L 668.30614,144.37039   L 668.98394,139.62583   L 668.98394,137.59244   L 668.98394,135.55906   L 669.66173,136.91465   L 670.33953,143.0148   L 671.01732,162.67087   L 671.69512,203.33858   L 673.05071,251.46205   L 673.7285,276.54047   L 674.4063,288.06299   L 675.08409,293.48535   L 675.08409,295.51874   L 675.08409,296.87433   L 675.76189,292.80756   L 676.43969,283.99622   L 677.11748,269.76252   L 677.79528,246.71748   L 678.47307,204.01638   L 679.82866,159.28189   L 680.50646,132.17008   L 680.50646,119.29197   L 681.18425,112.51402   L 681.18425,109.80283   L 681.18425,107.76945   L 681.86205,109.80283   L 682.53984,117.93638   L 683.21764,139.62583   L 684.57323,183.00472   L 685.92882,235.19496   L 686.60661,262.30677   L 687.28441,275.18488   L 687.28441,281.28504   L 687.28441,284.67402   L 687.9622,286.7074   L 688.64,284.67402   L 688.64,277.21827   L 689.99559,256.20661   L 690.67339,214.18331   L 692.02898,163.34866   L 692.70677,138.27024   L 693.38457,126.06992   L 693.38457,120.64756   L 694.06236,117.93638   L 694.06236,116.58079   L 694.74016,120.64756   L 695.41795,130.13669   L 696.09575,153.85953   L 697.45134,200.6274   L 698.12913,256.88441   L 698.80693,286.02961   L 699.48472,299.58551   L 700.16252,307.04126   L 700.16252,311.10803   L 700.16252,313.14142   L 700.84031,314.49701   L 700.84031,313.14142   L 701.51811,311.10803   L 701.51811,307.04126   L 702.19591,300.9411   L 702.19591,294.16315   L 702.19591,291.45197   L 702.19591,287.3852   L 702.8737,283.31843   L 702.8737,281.28504   L 702.8737,277.89606   L 702.8737,269.76252   L 703.5515,254.85102   L 703.5515,239.93953   L 704.22929,212.82772   L 705.58488,180.97134   L 705.58488,168.77102   L 706.26268,163.34866   L 706.26268,161.31528   L 707.61827,166.05984   L 707.61827,176.22677   L 708.29606,201.3052   L 709.65165,250.10646   L 711.00724,296.19654   L 711.00724,298.90772   L 711.00724,303.65228   L 711.00724,308.39685   L 711.00724,313.14142   L 711.00724,315.8526   L 711.00724,319.91937   L 711.68504,326.69732   L 711.68504,334.83087   L 712.36283,349.06457   L 712.36283,360.58709   L 713.04063,365.33165   L 713.04063,368.04283   L 713.04063,370.07622   L 714.39622,363.97606   L 715.07402,345.67559   L 715.75181,309.07465   L 715.75181,307.04126   L 716.42961,304.33008   L 716.42961,299.58551   L 716.42961,289.41858   L 716.42961,284.67402   L 717.1074,279.25165   L 717.1074,277.21827   L 717.1074,272.4737   L 717.1074,265.69575   L 717.7852,252.81764   L 717.7852,242.65071   L 718.46299,227.73921   L 719.14079,223.67244   L 719.14079,222.31685   L 719.81858,223.67244   L 719.81858,227.06142   L 720.49638,235.87276   L 721.17417,257.5622   L 721.85197,290.09638   L 721.85197,296.19654   L 722.52976,308.39685   L 722.52976,318.56378   L 722.52976,327.37512   L 722.52976,336.86425   L 723.20756,349.74236   L 723.20756,365.33165   L 723.88535,391.76567   L 724.56315,415.4885   L 725.24094,423.62205   L 725.24094,427.68882   L 725.24094,430.4   L 725.91874,431.75559   L 726.59654,424.97764   L 727.27433,406.67717   L 728.62992,368.04283   L 729.98551,320.59717   L 730.66331,295.51874   L 730.66331,294.16315   L 730.66331,292.80756   L 730.66331,290.09638   L 731.3411,286.7074   L 731.3411,284.67402   L 731.3411,282.64063   L 731.3411,279.92945   L 732.0189,278.57386   L 732.69669,283.31843   L 732.69669,291.45197   L 733.37449,292.80756   L 733.37449,296.19654   L 733.37449,302.97449   L 733.37449,306.36346   L 733.37449,310.43024   L 734.05228,311.78583   L 734.05228,315.1748   L 734.05228,321.27496   L 734.05228,328.73071   L 734.73008,345.67559   L 734.73008,363.97606   L 736.08567,400.57701   L 736.76346,442.60031   L 737.44126,459.5452   L 737.44126,467.67874   L 738.11906,472.42331   L 738.11906,474.45669   L 738.11906,475.81228   L 738.79685,474.45669   L 739.47465,467.67874   L 740.15244,448.02268   L 740.83024,408.03276   L 742.86362,351.09795   L 743.54142,327.37512   L 743.54142,315.8526   L 744.21921,310.43024   L 744.21921,307.71906   L 744.21921,306.36346   L 744.89701,309.07465   L 745.5748,318.56378   L 746.2526,341.60882   L 747.60819,387.0211   L 748.96378,437.85575   L 749.64157,463.61197   L 750.31937,475.81228   L 750.31937,481.23465   L 750.31937,484.62362   L 750.99717,485.97921   L 751.67496,482.59024   L 751.67496,473.7789   L 753.03055,450.73386   L 753.70835,404.64378   L 755.06394,351.09795   L 755.74173,323.30835   L 756.41953,309.75244   L 756.41953,302.97449   L 757.09732,299.58551   L 757.09732,297.55213   L 757.09732,296.19654   L 757.77512,298.22992   L 758.45291,304.33008   L 758.45291,314.49701   L 759.13071,332.11969   L 759.8085,362.62047   L 761.16409,397.18803   L 761.84189,430.4   L 762.51969,445.98929   L 762.51969,452.76724   L 763.19748,456.15622   L 763.19748,457.51181   L 763.87528,453.44504   L 764.55307,444.6337   L 765.23087,421.58866   L 766.58646,376.17638   L 767.94205,309.75244   L 767.94205,305.68567   L 767.94205,298.22992   L 768.61984,285.35181   L 768.61984,277.89606   L 768.61984,272.4737   L 768.61984,267.05134   L 769.29764,260.27339   L 769.29764,255.52882   L 769.97543,253.49543   L 770.65323,259.59559   L 771.33102,275.18488   L 771.33102,277.21827   L 772.00882,280.60724   L 772.00882,284.67402   L 772.00882,288.74079   L 772.00882,294.16315   L 772.68661,303.65228   L 772.68661,307.71906   L 772.68661,312.46362   L 772.68661,314.49701   L 772.68661,318.56378   L 772.68661,326.69732   L 773.36441,334.83087   L 773.36441,351.77575   L 774.0422,367.36504   L 774.72,391.76567   L 775.3978,398.54362   L 775.3978,401.2548   L 776.07559,402.61039   L 776.07559,400.57701   L 776.75339,397.18803   L 776.75339,387.6989   L 778.10898,363.29827   L 778.78677,317.20819   L 778.78677,313.14142   L 779.46457,303.65228   L 779.46457,286.02961   L 779.46457,279.92945   L 779.46457,274.50709   L 780.14236,271.11811   L 780.14236,263.66236   L 780.14236,252.81764   L 780.82016,237.22835   L 780.82016,220.28346   L 781.49795,204.01638   L 782.17575,197.91622   L 782.17575,194.52724   L 782.17575,192.49386   L 782.85354,191.13827   L 783.53134,195.88283   L 784.20913,211.47213   L 784.88693,246.03969   L 786.24252,291.45197   L 786.24252,297.55213   L 786.92031,309.07465   L 786.92031,315.8526   L 787.59811,322.63055   L 787.59811,330.0863   L 788.27591,336.18646   L 788.27591,339.57543   L 788.9537,335.50866   L 789.6315,325.34173   L 790.30929,303.65228   L 790.30929,300.9411   L 790.30929,297.55213   L 790.98709,290.09638   L 790.98709,285.35181   L 790.98709,280.60724   L 790.98709,278.57386   L 790.98709,275.86268   L 790.98709,271.11811   L 791.66488,262.30677   L 791.66488,244.0063   L 792.34268,227.06142   L 793.02047,196.56063   L 793.69827,160.63748   L 794.37606,148.43717   L 794.37606,141.65921   L 794.37606,138.27024   L 795.05386,136.23685   L 795.05386,134.88126   L 795.73165,138.27024   L 796.40945,149.11496   L 797.08724,175.54898   L 798.44283,223.67244   L 799.79843,262.98457   L 799.79843,281.28504   L 800.47622,290.09638   L 800.47622,294.16315   L 801.15402,296.19654   L 801.83181,293.48535   L 802.50961,286.7074   L 802.50961,274.50709   L 803.1874,255.52882   L 803.8652,218.25008   L 805.22079,177.58236   L 805.89858,140.98142   L 806.57638,123.35874   L 806.57638,115.2252   L 807.25417,110.48063   L 807.25417,108.44724   L 807.25417,107.09165   L 807.93197,109.12504   L 808.60976,116.58079   L 809.28756,136.23685   L 810.64315,177.58236   L 811.99874,236.55055   L 812.67654,262.98457   L 812.67654,275.18488   L 813.35433,281.28504   L 813.35433,284.67402   L 814.03213,286.7074   L 814.70992,284.67402   L 814.70992,276.54047   L 815.38772,255.52882   L 816.74331,212.82772   L 818.0989,162.67087   L 818.77669,137.59244   L 819.45449,126.06992   L 819.45449,120.64756   L 820.13228,117.93638   L 820.13228,116.58079   L 820.81008,120.64756   L 821.48787,130.13669   L 822.16567,153.85953   L 822.84346,200.6274   L 824.19906,256.88441   L 824.87685,286.02961   L 825.55465,300.26331   L 825.55465,307.04126   L 826.23244,311.10803   L 826.23244,313.81921   L 827.58803,311.10803   L 827.58803,306.36346   L 827.58803,299.58551   L 828.26583,290.09638   L 828.94362,279.25165   L 828.94362,269.76252   L 828.94362,258.9178   L 829.62142,243.3285   L 830.29921,226.38362   L 830.97701,195.20504   L 831.6548,173.51559   L 831.6548,165.38205   L 832.3326,161.99307   L 832.3326,160.63748   L 833.01039,161.99307   L 833.01039,164.70425   L 833.68819,174.19339   L 834.36598,196.56063   L 835.72157,241.29512   L 836.39937,288.06299   L 836.39937,292.12976   L 836.39937,294.84094   L 836.39937,300.9411   L 837.07717,308.39685   L 837.07717,315.1748   L 837.07717,317.20819   L 837.07717,319.91937   L 837.07717,326.69732   L 837.75496,335.50866   L 837.75496,349.74236   L 838.43276,360.58709   L 838.43276,365.33165   L 839.11055,368.04283   L 839.11055,370.07622   L 839.78835,363.97606   L 841.14394,346.35339   L 841.82173,309.07465   L 841.82173,304.33008   L 842.49953,294.84094   L 842.49953,290.77417   L 842.49953,282.64063   L 842.49953,277.89606   L 843.17732,273.1515   L 843.17732,268.40693   L 843.17732,260.27339   L 843.85512,248.07307   L 843.85512,237.90614   L 844.53291,227.06142   L 845.21071,223.67244   L 845.21071,222.31685   L 845.8885,223.67244   L 845.8885,227.06142   L 846.5663,236.55055   L 847.24409,258.9178   L 847.92189,286.02961   L 847.92189,290.09638   L 847.92189,298.90772   L 847.92189,302.29669   L 847.92189,308.39685   L 848.59969,314.49701   L 848.59969,317.20819   L 848.59969,321.27496   L 848.59969,328.73071   L 848.59969,340.93102   L 849.27748,359.2315   L 849.95528,378.20976   L 850.63307,410.74394   L 850.63307,421.58866   L 851.31087,426.33323   L 851.31087,429.7222   L 851.31087,431.75559   L 852.66646,425.65543   L 853.34425,408.71055   L 854.69984,371.43181   L 856.05543,318.56378   L 856.73323,294.84094   L 856.73323,293.48535   L 856.73323,291.45197   L 856.73323,289.41858   L 856.73323,287.3852   L 856.73323,286.02961   L 857.41102,284.67402   L 857.41102,282.64063   L 857.41102,280.60724   L 857.41102,278.57386   L 858.76661,282.64063   L 858.76661,290.77417   L 859.44441,300.9411   L 859.44441,304.33008   L 859.44441,307.71906   L 859.44441,310.43024   L 859.44441,312.46362   L 860.1222,317.20819   L 860.1222,326.01953   L 860.1222,341.60882   L 860.8,359.90929   L 861.4778,394.47685   L 862.83339,439.88913   L 863.51118,458.18961   L 863.51118,467.00094   L 863.51118,471.74551   L 864.18898,474.45669   L 864.18898,475.81228   L 865.54457,468.35654   L 866.22236,449.37827   L 866.90016,409.38835   L 868.25575,353.13134   L 868.93354,328.05291   L 869.61134,316.53039   L 870.28913,310.43024   L 870.28913,307.71906   L 870.28913,306.36346   L 870.96693,309.07465   L 871.64472,317.88598   L 872.32252,340.25323   L 873.67811,384.98772   L 875.0337,436.50016   L 875.7115,462.93417   L 875.7115,475.13449   L 876.38929,481.23465   L 876.38929,483.94583   L 876.38929,485.97921   L 877.06709,482.59024   L 877.74488,473.7789   L 878.42268,451.41165   L 879.77827,405.99937   L 881.13386,351.77575   L 881.81165,323.30835   L 882.48945,309.75244   L 882.48945,302.97449   L 882.48945,299.58551   L 883.16724,297.55213   L 883.16724,296.19654   L 883.84504,298.22992   L 883.84504,304.33008   L 884.52283,314.49701   L 885.20063,331.44189   L 885.87843,361.94268   L 886.55622,396.51024   L 887.91181,430.4   L 888.58961,445.98929   L 888.58961,452.76724   L 889.2674,456.15622   L 889.2674,457.51181   L 889.9452,454.12283   L 890.62299,444.6337   L 891.30079,421.58866   L 891.97858,376.17638   L 893.33417,310.43024   L 894.01197,306.36346   L 894.01197,298.90772   L 894.01197,285.35181   L 894.68976,277.89606   L 894.68976,271.79591   L 894.68976,266.37354   L 895.36756,260.95118   L 895.36756,255.52882   L 896.04535,253.49543   L 896.72315,259.59559   L 897.40094,273.82929   L 897.40094,280.60724   L 898.07874,287.3852   L 898.07874,293.48535   L 898.07874,302.97449   L 898.75654,307.71906   L 898.75654,312.46362   L 898.75654,315.1748   L 898.75654,319.24157   L 898.75654,324.66394   L 899.43433,335.50866   L 899.43433,344.9978   L 900.11213,363.29827   L 900.78992,380.92094   L 900.78992,393.12126   L 901.46772,399.22142   L 901.46772,401.9326   L 902.14551,400.57701   L 902.82331,397.18803   L 902.82331,387.0211   L 903.5011,361.94268   L 904.85669,315.1748   L 904.85669,309.07465   L 904.85669,303.65228   L 905.53449,292.12976   L 905.53449,285.35181   L 905.53449,277.89606   L 905.53449,275.18488   L 905.53449,271.79591   L 906.21228,264.34016   L 906.21228,252.81764   L 906.89008,236.55055   L 906.89008,220.28346   L 907.56787,204.69417   L 907.56787,198.59402   L 908.24567,194.52724   L 908.24567,192.49386   L 908.24567,191.13827   L 908.92346,194.52724   L 909.60126,206.72756   L 910.95685,237.22835   L 912.31244,288.74079   L 912.31244,292.12976   L 912.31244,296.19654   L 912.31244,304.33008   L 912.31244,306.36346   L 912.99024,309.75244   L 912.99024,311.78583   L 912.99024,314.49701   L 912.99024,317.20819   L 912.99024,321.95276   L 913.66803,326.69732   L 913.66803,334.15307   L 914.34583,339.57543   L 915.02362,335.50866   L 915.70142,325.34173   L 916.37921,304.33008   L 916.37921,300.9411   L 916.37921,297.55213   L 917.05701,288.74079   L 917.05701,285.35181   L 917.05701,279.25165   L 917.05701,275.86268   L 917.05701,271.11811   L 917.05701,265.69575   L 917.7348,253.49543   L 917.7348,241.29512   L 918.4126,216.89449   L 919.09039,191.81606   L 919.76819,161.31528   L 919.76819,148.43717   L 920.44598,142.33701   L 920.44598,138.94803   L 921.12378,136.23685   L 921.12378,134.88126   L 921.80157,137.59244   L 922.47937,147.75937   L 923.15717,172.8378   L 924.51276,219.60567   L 925.19055,260.95118   L 925.86835,280.60724   L 926.54614,290.09638   L 926.54614,294.16315   L 927.22394,296.19654   L 927.90173,294.16315   L 927.90173,288.74079   L 928.57953,277.21827   L 929.25732,259.59559   L 929.93512,228.41701   L 930.61291,190.46047   L 931.9685,147.08157   L 932.6463,126.74772   L 932.6463,116.58079   L 933.32409,111.15843   L 933.32409,108.44724   L 933.32409,107.09165   L 934.00189,108.44724   L 934.67969,115.2252   L 935.35748,133.52567   L 936.03528,173.51559   L 937.39087,231.80598   L 938.06866,260.27339   L 938.74646,273.82929   L 939.42425,280.60724   L 939.42425,284.67402   L 939.42425,286.02961   L 940.10205,287.3852   L 940.10205,284.67402   L 940.77984,277.21827   L 941.45764,256.20661   L 942.81323,214.18331   L 944.16882,164.02646   L 944.84661,138.27024   L 944.84661,126.06992   L 945.52441,120.64756   L 945.52441,117.93638   L 946.2022,116.58079   L 946.88,120.64756   L 946.88,130.13669   L 947.5578,153.85953   L 948.91339,200.6274   L 950.26898,256.88441   L 950.94677,286.02961   L 951.62457,300.26331   L 951.62457,307.04126   L 952.30236,311.10803   L 952.30236,313.81921   L 953.65795,308.39685   L 953.65795,296.87433   L 954.33575,294.84094   L 954.33575,292.12976   L 954.33575,290.77417   L 954.33575,288.06299   L 954.33575,284.67402   L 954.33575,281.96283   L 954.33575,278.57386   L 955.01354,272.4737   L 955.01354,266.37354   L 955.01354,252.13984   L 955.69134,239.26173   L 956.36913,213.50551   L 957.04693,186.3937   L 957.72472,171.4822   L 957.72472,164.70425   L 958.40252,161.99307   L 958.40252,160.63748   L 959.08031,161.99307   L 959.08031,165.38205   L 959.75811,174.87118   L 960.43591,198.59402   L 961.7915,244.68409   L 962.46929,297.55213   L 962.46929,298.90772   L 962.46929,300.26331   L 962.46929,305.00787   L 963.14709,309.75244   L 963.14709,314.49701   L 963.14709,317.88598   L 963.14709,323.98614   L 963.14709,333.47528   L 963.82488,347.03118   L 964.50268,359.2315   L 964.50268,364.65386   L 964.50268,367.36504   L 965.18047,369.39843   L 965.18047,370.75402   L 965.85827,364.65386   L 966.53606,347.70898   L 967.89165,312.46362   L 967.89165,307.71906   L 967.89165,298.22992   L 968.56945,290.09638   L 968.56945,286.02961   L 968.56945,281.28504   L 968.56945,275.86268   L 968.56945,273.1515   L 969.24724,268.40693   L 969.24724,261.62898   L 969.24724,249.42866   L 969.92504,239.93953   L 970.60283,227.06142   L 970.60283,223.67244   L 971.28063,222.31685   L 971.28063,223.67244   L 971.95843,227.06142   L 971.95843,236.55055   L 972.63622,258.9178   L 973.99181,286.7074   L 973.99181,290.09638   L 973.99181,296.87433   L 973.99181,298.90772   L 973.99181,302.29669   L 973.99181,309.07465   L 973.99181,315.1748   L 974.66961,320.59717   L 974.66961,326.01953   L 974.66961,332.79748   L 974.66961,341.60882   L 975.3474,357.19811   L 975.3474,371.43181   L 976.0252,397.18803   L 976.70299,418.87748   L 977.38079,425.65543   L 977.38079,429.04441   L 977.38079,431.0778   L 978.05858,432.43339   L 978.73638,427.01102   L 979.41417,411.42173   L 980.09197,376.85417   L 981.44756,324.66394   L 982.12535,296.87433   L 982.80315,295.51874   L 982.80315,294.16315   L 982.80315,291.45197   L 982.80315,288.06299   L 982.80315,286.02961   L 982.80315,284.67402   L 983.48094,282.64063   L 983.48094,280.60724   L 983.48094,278.57386   L 984.15874,279.92945   L 984.15874,283.31843   L 984.83654,291.45197   L 984.83654,292.80756   L 984.83654,294.16315   L 984.83654,296.87433   L 985.51433,300.9411   L 985.51433,302.29669   L 985.51433,305.00787   L 985.51433,307.71906   L 985.51433,311.10803   L 985.51433,314.49701   L 985.51433,319.24157   L 986.19213,327.37512   L 986.19213,342.96441   L 986.86992,357.19811   L 987.54772,386.34331   L 988.22551,420.23307   L 988.90331,448.70047   L 989.5811,462.25638   L 989.5811,469.71213   L 989.5811,473.1011   L 990.2589,475.13449   L 990.2589,476.49008   L 990.93669,474.45669   L 990.93669,467.00094   L 992.29228,446.66709   L 992.97008,405.32157   L 994.32567,355.16472   L 995.00346,328.73071   L 995.68126,316.53039   L 995.68126,310.43024   L 996.35906,307.71906   L 996.35906,306.36346   L 997.03685,309.07465   L 997.71465,317.88598   L 998.39244,339.57543   L 999.07024,383.63213   L 1000.4258,435.82236   L 1001.1036,462.25638   L 1001.7814,475.13449   L 1002.4592,481.23465   L 1002.4592,483.94583   L 1002.4592,485.97921   L 1003.137,483.26803   L 1003.8148,474.45669   L 1004.4926,451.41165   L 1005.8482,406.67717   L 1007.2038,351.77575   L 1007.8816,323.98614   L 1007.8816,309.75244   L 1008.5594,302.97449   L 1008.5594,299.58551   L 1009.2372,297.55213   L 1009.2372,296.19654   L 1009.915,298.22992   L 1009.915,304.33008   L 1010.5928,313.81921   L 1011.2706,330.0863   L 1011.9483,361.26488   L 1012.6261,397.18803   L 1013.9817,430.4   L 1013.9817,445.98929   L 1014.6595,452.76724   L 1014.6595,456.15622   L 1015.3373,457.51181   L 1016.0151,453.44504   L 1016.0151,444.6337   L 1017.3707,421.58866   L 1018.0485,376.17638   L 1019.4041,309.75244   L 1019.4041,305.68567   L 1020.0819,298.22992   L 1020.0819,292.12976   L 1020.0819,290.77417   L 1020.0819,289.41858   L 1020.0819,286.02961   L 1020.0819,281.96283   L 1020.0819,278.57386   L 1020.7597,275.18488   L 1020.7597,270.44031   L 1020.7597,266.37354   L 1021.4375,258.9178   L 1021.4375,254.17323   L 1021.4375,252.81764   L 1022.1153,254.17323   L 1022.7931,260.95118   L 1023.4709,276.54047   L 1023.4709,279.25165   L 1023.4709,282.64063   L 1023.4709,285.35181   L 1024.1487,288.74079   L 1024.1487,293.48535   L 1024.1487,300.9411   L 1024.1487,306.36346   L 1024.8265,312.46362   L 1024.8265,314.49701   L 1024.8265,318.56378   L 1024.8265,326.69732   L 1025.5043,340.93102   L 1025.5043,354.48693   L 1026.182,376.85417   L 1026.8598,392.44346   L 1027.5376,398.54362   L 1027.5376,401.2548   L 1027.5376,402.61039   L 1028.2154,400.57701   L 1028.2154,397.18803   L 1028.8932,387.0211   L 1029.571,362.62047   L 1030.9266,316.53039   L 1030.9266,310.43024   L 1030.9266,298.90772   L 1031.6044,286.7074   L 1031.6044,281.28504   L 1031.6044,275.18488   L 1031.6044,271.79591   L 1031.6044,267.05134   L 1032.2822,258.24   L 1032.2822,248.75087   L 1032.96,231.12819   L 1032.96,215.5389   L 1033.6378,203.33858   L 1033.6378,197.23843   L 1034.3156,194.52724   L 1034.3156,191.81606   L 1034.3156,190.46047   L 1034.9934,196.56063   L 1035.6712,212.14992   L 1037.0268,246.03969   L 1037.0268,254.17323   L 1037.7046,262.30677   L 1037.7046,270.44031   L 1037.7046,279.92945   L 1038.3824,294.84094   L 1038.3824,310.43024   L 1039.0602,318.56378   L 1039.0602,326.69732   L 1039.738,333.47528   L 1040.4157,338.89764   L 1040.4157,340.25323   L 1041.0935,338.89764   L 1041.0935,336.18646   L 1041.7713,326.69732   L 1042.4491,306.36346   L 1042.4491,303.65228   L 1042.4491,300.26331   L 1042.4491,292.80756   L 1042.4491,290.77417   L 1042.4491,285.35181   L 1043.1269,281.28504   L 1043.1269,276.54047   L 1043.1269,270.44031   L 1043.1269,257.5622   L 1043.8047,245.36189   L 1043.8047,221.63906   L 1044.4825,196.56063   L 1045.8381,162.67087   L 1045.8381,149.11496   L 1046.5159,142.33701   L 1046.5159,138.94803   L 1046.5159,136.23685   L 1047.1937,134.88126   L 1047.1937,136.91465   L 1047.8715,143.6926   L 1048.5493,164.70425   L 1049.9049,206.04976   L 1051.2605,253.49543   L 1051.9383,277.21827   L 1051.9383,288.06299   L 1052.6161,293.48535   L 1052.6161,295.51874   L 1053.2939,296.87433   L 1053.2939,295.51874   L 1053.9717,292.80756   L 1053.9717,283.99622   L 1054.6494,269.08472   L 1055.3272,245.36189   L 1056.6828,200.6274   L 1057.3606,153.85953   L 1058.0384,129.4589   L 1058.7162,117.93638   L 1058.7162,111.83622   L 1059.394,109.12504   L 1059.394,107.76945   L 1060.0718,109.80283   L 1060.7496,118.61417   L 1061.4274,141.65921   L 1062.783,186.3937   L 1063.4608,237.22835   L 1064.1386,262.98457   L 1064.8164,275.18488   L 1065.4942,281.96283   L 1065.4942,284.67402   L 1065.4942,286.7074   L 1066.172,284.67402   L 1066.8498,276.54047   L 1067.5276,254.85102   L 1068.8831,212.14992   L 1070.2387,162.67087   L 1070.9165,137.59244   L 1070.9165,126.06992   L 1071.5943,120.64756   L 1071.5943,117.93638   L 1071.5943,116.58079   L 1072.2721,120.64756   L 1072.9499,130.13669   L 1073.6277,154.53732   L 1074.9833,201.3052   L 1076.3389,257.5622   L 1077.0167,286.02961   L 1077.6945,300.9411   L 1077.6945,302.97449   L 1077.6945,305.68567   L 1077.6945,307.04126   L 1077.6945,308.39685   L 1077.6945,310.43024   L 1078.3723,313.14142   L 1078.3723,314.49701   L 1079.0501,311.78583   L 1079.7279,305.00787   L 1079.7279,302.97449   L 1079.7279,301.6189   L 1079.7279,298.90772   L 1079.7279,293.48535   L 1080.4057,289.41858   L 1080.4057,286.02961   L 1080.4057,282.64063   L 1080.4057,279.92945   L 1080.4057,274.50709   L 1081.0835,262.30677   L 1081.0835,249.42866   L 1081.7613,227.06142   L 1082.4391,198.59402   L 1083.1169,177.58236   L 1083.7946,167.41543   L 1083.7946,162.67087   L 1084.4724,161.31528   L 1085.1502,166.05984   L 1085.828,177.58236   L 1086.5058,204.01638   L 1087.8614,254.17323   L 1087.8614,260.27339   L 1087.8614,272.4737   L 1088.5392,289.41858   L 1088.5392,305.68567   L 1088.5392,311.78583   L 1089.217,317.88598   L 1089.217,320.59717   L 1089.217,324.66394   L 1089.217,330.0863   L 1089.217,339.57543   L 1089.8948,347.70898   L 1090.5726,361.26488   L 1090.5726,366.00945   L 1090.5726,368.72063   L 1091.2504,370.07622   L 1091.9282,363.97606   L 1092.606,345.67559   L 1093.9616,308.39685   L 1093.9616,303.65228   L 1093.9616,294.16315   L 1093.9616,292.80756   L 1094.6394,287.3852   L 1094.6394,281.96283   L 1094.6394,279.92945   L 1094.6394,276.54047   L 1094.6394,271.11811   L 1095.3172,261.62898   L 1095.3172,250.78425   L 1095.995,237.22835   L 1096.6728,226.38362   L 1096.6728,222.99465   L 1098.0283,227.73921   L 1098.0283,237.22835   L 1098.7061,260.27339   L 1099.3839,287.3852   L 1099.3839,291.45197   L 1100.0617,300.26331   L 1100.0617,301.6189   L 1100.0617,308.39685   L 1100.0617,315.1748   L 1100.0617,318.56378   L 1100.0617,323.98614   L 1100.7395,329.4085   L 1100.7395,340.25323   L 1100.7395,351.77575   L 1101.4173,372.7874   L 1102.0951,393.12126   L 1102.7729,414.13291   L 1102.7729,422.94425   L 1103.4507,427.01102   L 1103.4507,429.7222   L 1103.4507,431.75559   L 1104.8063,424.97764   L 1105.4841,405.99937   L 1106.1619,367.36504   L 1107.5175,320.59717   L 1108.1953,295.51874   L 1108.1953,294.16315   L 1108.8731,292.80756   L 1108.8731,290.77417   L 1108.8731,288.74079   L 1108.8731,286.7074   L 1108.8731,285.35181   L 1108.8731,283.99622   L 1109.5509,281.28504   L 1109.5509,278.57386   L 1110.2287,281.96283   L 1110.9065,290.09638   L 1110.9065,301.6189   L 1111.5843,304.33008   L 1111.5843,307.71906   L 1111.5843,309.75244   L 1111.5843,312.46362   L 1111.5843,316.53039   L 1111.5843,321.27496   L 1112.262,330.76409   L 1112.262,342.28661   L 1112.9398,367.36504   L 1113.6176,392.44346   L 1114.2954,439.88913   L 1114.9732,458.18961   L 1115.651,467.00094   L 1115.651,471.74551   L 1115.651,474.45669   L 1116.3288,475.81228   L 1117.0066,468.35654   L 1117.6844,449.37827   L 1119.04,409.38835   L 1120.3956,353.13134   L 1121.0734,328.05291   L 1121.7512,316.53039   L 1121.7512,310.43024   L 1121.7512,307.71906   L 1122.429,306.36346   L 1123.1068,309.07465   L 1123.7846,317.88598   L 1124.4624,340.25323   L 1125.1402,384.98772   L 1126.4957,436.50016   L 1127.1735,462.93417   L 1127.8513,475.13449   L 1127.8513,481.23465   L 1128.5291,483.94583   L 1128.5291,485.97921   L 1129.2069,482.59024   L 1129.8847,473.7789   L 1130.5625,451.41165   L 1131.9181,405.99937   L 1132.5959,351.77575   L 1133.9515,323.98614   L 1133.9515,309.75244   L 1134.6293,302.97449   L 1134.6293,299.58551   L 1134.6293,297.55213   L 1135.3071,296.19654   L 1135.3071,298.22992   L 1135.9849,304.33008   L 1136.6627,313.81921   L 1137.3405,330.76409   L 1138.0183,361.26488   L 1138.6961,396.51024   L 1139.3739,430.4   L 1140.0517,445.98929   L 1140.7294,452.76724   L 1140.7294,456.15622   L 1140.7294,457.51181   L 1142.085,454.12283   L 1142.085,444.6337   L 1142.7628,421.58866   L 1144.1184,376.17638   L 1145.474,310.43024   L 1145.474,306.36346   L 1145.474,298.22992   L 1146.1518,292.12976   L 1146.1518,290.77417   L 1146.1518,289.41858   L 1146.1518,286.02961   L 1146.1518,281.96283   L 1146.1518,278.57386   L 1146.1518,275.18488   L 1146.8296,270.44031   L 1146.8296,265.69575   L 1147.5074,258.24   L 1147.5074,254.85102   L 1147.5074,252.81764   L 1148.1852,254.17323   L 1148.863,260.27339   L 1149.5408,276.54047   L 1149.5408,279.25165   L 1149.5408,282.64063   L 1149.5408,284.67402   L 1149.5408,287.3852   L 1150.2186,291.45197   L 1150.2186,297.55213   L 1150.2186,298.90772   L 1150.2186,301.6189   L 1150.2186,306.36346   L 1150.2186,311.10803   L 1150.2186,315.1748   L 1150.8964,319.91937   L 1150.8964,328.05291   L 1150.8964,336.18646   L 1151.5742,353.13134   L 1151.5742,366.68724   L 1152.9298,389.05449   L 1152.9298,397.18803   L 1153.6076,400.57701   L 1153.6076,401.9326   L 1154.2854,397.86583   L 1154.9631,389.05449   L 1155.6409,366.68724   L 1156.3187,323.30835   L 1156.9965,319.24157   L 1156.9965,310.43024   L 1156.9965,292.12976   L 1157.6743,285.35181   L 1157.6743,278.57386   L 1157.6743,275.18488   L 1157.6743,270.44031   L 1157.6743,264.34016   L 1157.6743,255.52882   L 1158.3521,246.03969   L 1158.3521,227.73921   L 1159.0299,213.50551   L 1159.7077,201.98299   L 1159.7077,196.56063   L 1159.7077,193.84945   L 1160.3855,191.81606   L 1160.3855,190.46047   L 1160.3855,191.81606   L 1161.0633,196.56063   L 1161.7411,213.50551   L 1163.0967,250.10646   L 1163.7745,288.06299   L 1163.7745,290.09638   L 1163.7745,292.80756   L 1164.4523,296.19654   L 1164.4523,304.33008   L 1164.4523,307.04126   L 1164.4523,309.75244   L 1164.4523,311.78583   L 1164.4523,315.1748   L 1165.1301,320.59717   L 1165.1301,326.69732   L 1165.8079,334.15307   L 1165.8079,339.57543   L 1167.1635,335.50866   L 1167.8413,324.66394   L 1168.5191,302.97449   L 1168.5191,298.22992   L 1168.5191,289.41858   L 1168.5191,283.99622   L 1168.5191,279.25165   L 1169.1969,275.86268   L 1169.1969,270.44031   L 1169.1969,265.01795   L 1169.1969,254.17323   L 1169.8746,241.97291   L 1169.8746,218.25008   L 1170.5524,194.52724   L 1171.2302,161.31528   L 1171.908,148.43717   L 1172.5858,142.33701   L 1172.5858,138.27024   L 1172.5858,136.23685   L 1172.5858,134.88126   L 1173.2636,138.27024   L 1173.9414,147.75937   L 1174.6192,173.51559   L 1175.9748,220.96126   L 1177.3304,261.62898   L 1178.0082,280.60724   L 1178.0082,290.09638   L 1178.686,294.16315   L 1178.686,296.19654   L 1179.3638,294.16315   L 1180.0416,288.74079   L 1180.7194,276.54047   L 1180.7194,258.9178   L 1182.075,226.38362   L 1182.7528,188.42709   L 1183.4306,146.40378   L 1184.1083,126.06992   L 1184.7861,115.90299   L 1184.7861,111.15843   L 1184.7861,108.44724   L 1185.4639,107.09165   L 1186.1417,109.12504   L 1186.1417,115.2252   L 1186.8195,134.20346   L 1188.1751,174.19339   L 1189.5307,232.48378   L 1190.2085,260.27339   L 1190.8863,274.50709   L 1190.8863,281.28504   L 1191.5641,284.67402   L 1191.5641,286.02961   L 1191.5641,287.3852   L 1192.2419,284.67402   L 1192.9197,277.21827   L 1193.5975,256.20661   L 1194.2753,214.18331   L 1195.6309,164.02646   L 1196.3087,138.27024   L 1196.9865,126.06992   L 1197.6643,120.64756   L 1197.6643,117.93638   L 1197.6643,116.58079   L 1198.342,120.64756   L 1199.0198,130.13669   L 1199.6976,153.85953   L 1201.0532,200.6274   L 1202.4088,256.88441   L 1203.0866,286.02961   L 1203.0866,300.26331   L 1203.7644,307.04126   L 1203.7644,311.10803   L 1204.4422,313.81921   L 1205.12,307.71906   L 1205.7978,294.16315   L 1205.7978,292.12976   L 1205.7978,290.09638   L 1206.4756,287.3852   L 1206.4756,285.35181   L 1206.4756,283.31843   L 1206.4756,279.92945   L 1206.4756,275.86268   L 1206.4756,267.72913   L 1207.1534,258.24   L 1207.1534,238.58394   L 1207.8312,218.92787   L 1209.1868,183.68252   L 1209.8646,170.12661   L 1209.8646,164.02646   L 1209.8646,161.31528   L 1211.2202,165.38205   L 1211.898,175.54898   L 1212.5757,199.94961   L 1213.2535,248.07307   L 1214.6091,292.80756   L 1214.6091,295.51874   L 1214.6091,299.58551   L 1214.6091,307.71906   L 1214.6091,314.49701   L 1215.2869,320.59717   L 1215.2869,326.01953   L 1215.2869,334.83087   L 1215.2869,343.6422   L 1215.9647,357.19811   L 1216.6425,366.00945   L 1216.6425,368.72063   L 1216.6425,370.07622   L 1217.9981,363.29827   L 1218.6759,344.32   L 1220.0315,306.36346   L 1220.0315,304.33008   L 1220.0315,302.29669   L 1220.0315,300.26331   L 1220.0315,298.22992   L 1220.0315,294.16315   L 1220.0315,288.74079   L 1220.7093,281.96283   L 1220.7093,279.92945   L 1220.7093,275.86268   L 1220.7093,270.44031   L 1221.3871,259.59559   L 1221.3871,249.42866   L 1222.0649,235.19496   L 1222.7427,226.38362   L 1222.7427,222.99465   L 1223.4205,227.73921   L 1224.0983,237.22835   L 1224.7761,260.95118   L 1225.4539,287.3852   L 1225.4539,291.45197   L 1226.1317,300.26331   L 1226.1317,307.04126   L 1226.1317,313.14142   L 1226.1317,318.56378   L 1226.1317,322.63055   L 1226.1317,330.0863   L 1226.8094,338.89764   L 1226.8094,355.16472   L 1227.4872,369.39843   L 1228.165,395.15465   L 1228.8428,417.52189   L 1228.8428,424.97764   L 1228.8428,428.36661   L 1229.5206,431.0778   L 1229.5206,432.43339   L 1230.1984,430.4   L 1230.8762,421.58866   L 1231.554,397.18803   L 1232.9096,352.45354   L 1233.5874,311.78583   L 1234.2652,292.12976   L 1234.2652,290.09638   L 1234.943,288.06299   L 1234.943,286.02961   L 1234.943,283.31843   L 1234.943,280.60724   L 1235.6208,278.57386   L 1236.2986,282.64063   L 1236.9764,291.45197   L 1236.9764,305.00787   L 1237.6542,324.66394   L 1238.332,346.35339   L 1239.0098,371.43181   L 1239.6876,400.57701   L 1240.3654,435.82236   L 1241.0431,457.51181   L 1241.0431,467.00094   L 1241.7209,471.74551   L 1241.7209,474.45669   L 1241.7209,475.81228   L 1242.3987,474.45669   L 1243.0765,472.42331   L 1243.0765,469.71213   L 1243.0765,466.32315   L 1243.0765,462.93417   L 1243.7543,458.18961   L 1243.7543,452.76724   L 1243.7543,446.66709   L 1244.4321,440.56693   L 1244.4321,433.11118   L 1244.4321,424.97764   L 1244.4321,416.1663   L 1245.1099,406.67717   L 1245.1099,395.83244   L 1245.7877,384.30992   L 1245.7877,372.10961   L 1245.7877,359.2315   L 1246.4655,345.67559   L 1246.4655,332.79748   L 1247.1433,321.27496   L 1247.8211,310.43024   L 1247.8211,307.71906   L 1248.4989,306.36346   L 1249.1767,308.39685   L 1249.1767,312.46362   L 1249.1767,319.91937   L 1249.8545,330.76409   L 1250.5323,347.03118   L 1251.2101,369.39843   L 1251.8879,399.89921   L 1252.5657,439.88913   L 1253.2435,464.28976   L 1253.9213,475.81228   L 1253.9213,481.91244   L 1254.5991,484.62362   L 1254.5991,485.97921   L 1255.2769,482.59024   L 1255.2769,477.16787   L 1255.9546,465.64535   L 1256.6324,445.98929   L 1257.3102,416.1663   L 1258.6658,370.07622   L 1259.3436,332.79748   L 1260.0214,314.49701   L 1260.0214,305.00787   L 1260.6992,300.9411   L 1260.6992,298.22992   L 1260.6992,296.87433   L 1262.0548,302.29669   L 1262.0548,309.07465   L 1262.7326,319.91937   L 1263.4104,348.38677   L 1264.766,390.41008   L 1265.4438,427.01102   L 1266.1216,443.95591   L 1266.7994,452.08945   L 1266.7994,456.15622   L 1266.7994,457.51181   L 1267.4772,454.12283   L 1268.155,445.3115   L 1268.8328,424.29984   L 1269.5106,387.6989   L 1270.8661,323.30835   L 1270.8661,320.59717   L 1271.5439,314.49701   L 1271.5439,307.71906   L 1271.5439,300.26331   L 1272.2217,287.3852   L 1272.2217,277.89606   L 1272.2217,271.79591   L 1272.8995,266.37354   L 1272.8995,258.24   L 1273.5773,254.85102   L 1273.5773,253.49543   L 1274.2551,259.59559   L 1275.6107,275.18488   L 1275.6107,277.89606   L 1275.6107,281.28504   L 1275.6107,283.31843   L 1275.6107,286.7074   L 1275.6107,290.77417   L 1276.2885,297.55213   L 1276.2885,306.36346   L 1276.2885,315.1748   L 1276.9663,321.95276   L 1276.9663,329.4085   L 1276.9663,342.28661   L 1277.6441,353.80913   L 1278.3219,374.82079   L 1278.9997,393.12126   L 1278.9997,399.22142   L 1279.6775,401.9326   L 1280.3553,400.57701   L 1280.3553,397.18803   L 1281.0331,386.34331   L 1281.7109,361.94268   L 1282.3887,313.81921   L 1283.0665,296.19654  "
     style="fill:none;stroke:#0000ff;stroke-width:2.7111812px;stroke-linecap:round;stroke-linejoin:round;stroke-miterlimit:4;stroke-dasharray:none;stroke-opacity:1;" />
</svg>
